<svg version="1.1" id="Capa_1" xmlns="http://www.w3.org/2000/svg" xmlns:xlink="http://www.w3.org/1999/xlink" x="0px" y="0px" viewBox="0 0 794 443" style="enable-background:new 0 0 794 443;" xml:space="preserve">
                        <style type="text/css">
                            .st0{fill:#FFFFFF;}
                        </style>
                        <g>

                            <g>
                                <g>
                                    <g>
                                        <g>
                                            <path class="st0" d="M286.9,353.1c-1.4-1.4-2.1-3.5-2.1-6.1c0-2,0.4-4.3,1.1-7c0.7-2.7,1.8-6,3.2-9.9
                                                  c3.3-9.4,7.2-19.8,11.7-31.3c4.5-11.5,8.6-21.3,12.4-29.2c-8.5,0.2-14.9,0.4-19.1,0.6c-4.2,0.3-8.9,0.8-13.9,1.7
                                                  c0.3-3.6,3-6.2,8-7.8c5-1.6,11.9-2.4,20.7-2.4c6.4,0,13.9,0.5,22.7,1.4c2.6,0.3,5.2,0.6,7.9,0.8s5.1,0.3,7.3,0.3
                                                  c-2.5,2.2-5.4,3.6-8.6,4.3c-3.2,0.7-7.1,1.1-11.5,1.1l-8.4-0.1c-6.4,15.9-12.6,34.3-18.5,55.3l-1.1,3.8
                                                  c-1.8,6.5-3.1,11.4-3.8,14.6c-0.7,3.2-1.1,6.4-1.1,9.5c0,1.2,0,2,0.1,2.6C290.8,355.3,288.4,354.6,286.9,353.1z"></path>
                                            <path class="st0" d="M327.2,346c-0.9-2.4-1.4-5.2-1.4-8.5c0-7.1,2.2-16.7,6.7-28.8c4.4-12.1,9.5-22.8,15.1-32.2
                                                  c5.7-9.4,10.1-14.2,13.4-14.2c1.3,0,2.2,0.8,2.9,2.3c0.7,1.5,1,3.2,1,5c0,3.6-1.3,8.5-3.9,14.5c-2.6,6-6,11.8-10.3,17.4
                                                  c-4.2,5.6-8.5,9.7-12.9,12.3c-1.4,3.2-2.5,7-3.2,11.3c-0.7,4.3-1.1,8.1-1.1,11.5c0,1.2,0.1,2.6,0.2,3.9
                                                  c3.1-9,6.7-16.2,10.7-21.7c4-5.5,8.4-8.3,13.3-8.3c3,0,5.2,1,6.7,3.1c1.5,2.1,2.2,4.5,2.2,7.4c0,1.7-0.2,3.3-0.6,4.9
                                                  c-0.4,1.5-1.1,3.6-2.1,6c-0.8,2.1-1.4,3.8-1.8,5c-0.4,1.2-0.6,2.4-0.6,3.6c0,1.5,0.3,2.6,0.9,3.3c0.6,0.7,1.5,1.1,2.6,1.1
                                                  c2.7,0,5.8-1.8,9.4-5.5c3.6-3.7,6.6-8,9-13.1l1.5,1.4c-2.6,5.9-5.9,10.7-10,14.5c-4,3.8-8.3,5.7-12.7,5.7c-2.6,0-4.6-0.7-6-2
                                                  c-1.4-1.4-2.1-3.1-2.1-5.3c0-1.7,0.6-4.4,1.8-8.2c1.3-4.2,1.9-7.3,1.9-9.3c0-1.9-0.4-3.3-1.2-4.2c-0.8-0.9-1.9-1.3-3.2-1.3
                                                  c-2.9,0-5.4,1.7-7.6,5c-2.2,3.4-4.5,8.1-7,14.2c-1.9,4.5-3.4,7.7-4.5,9.7c-1.1,2-2.3,3-3.7,3
                                                  C329.3,349.6,328.1,348.4,327.2,346z M349.5,297.9c3.3-5,6.1-9.9,8.3-14.9c2.2-4.9,3.2-8.4,3.2-10.4c0-0.6-0.2-0.9-0.5-0.9
                                                  c-0.9,0-2.7,1.9-5.4,5.7c-2.7,3.8-5.6,8.6-8.5,14.4c-3,5.8-5.4,11.6-7.2,17.4C342.8,306.7,346.1,302.9,349.5,297.9z"></path>
                                            <path class="st0" d="M383.3,346.5c-2.5-2.5-3.7-5.7-3.7-9.7c0-4.6,1.5-9.5,4.6-14.7c3.1-5.3,6.9-9.7,11.6-13.3
                                                  c4.7-3.6,9.3-5.4,13.7-5.4c4.9,0,7.3,2.4,7.3,7.1c0,3.8-1.5,7.3-4.4,10.6c-2.9,3.3-6.6,6-11.2,8.1c-4.6,2.1-9.1,3.4-13.7,3.8
                                                  c-0.3,1.3-0.5,2.7-0.5,4.2c0,2.8,0.7,5.1,2.1,7c1.4,1.9,3.8,2.8,7.2,2.8c4.8,0,9.6-2,14.5-5.9c4.9-3.9,8.8-8.8,11.9-14.6l1.4,1
                                                  c-3.1,6.9-7.5,12.4-13.1,16.6c-5.6,4.2-11.3,6.3-17.2,6.3C389.3,350.3,385.8,349,383.3,346.5z M398.5,325.9
                                                  c3.6-2.1,6.7-4.5,9.3-7.4c2.6-2.8,3.8-5.8,3.8-8.9c0-0.9-0.2-1.6-0.5-2c-0.4-0.4-1-0.6-1.9-0.6c-2.4,0-5.1,1.2-8,3.6
                                                  c-2.9,2.4-5.5,5.5-7.9,9.2c-2.4,3.7-4.1,7.4-5.1,11C391.5,329.6,394.9,328,398.5,325.9z"></path>
                                            <path class="st0" d="M469,353.2c-2.2-1.4-3.2-3.8-3.2-7.2c0-2.1,0.4-4.8,1.3-8.1c0.9-3.3,2.2-7.9,4.1-13.7
                                                  c3.1-9.6,5.4-17.7,7-24.2c1.6-6.5,2.4-12.8,2.4-18.8c0-3.6-0.1-6.5-0.4-8.7c-0.2-2.2-0.9-4-1.9-5.4c-1-1.4-2.6-2.1-4.8-2.1
                                                  c-2.7,0-4.9,1-6.8,3.1c-1.8,2.1-3.2,4.6-4.1,7.6c-0.9,3-1.3,6-1.3,8.8c0,2.6,0.4,4.6,1.1,6.3c-2.9,0-5-0.8-6.4-2.3
                                                  c-1.3-1.5-2-3.6-2-6c0-3.2,1-6.4,3-9.6c2-3.2,4.7-5.9,8-7.9c3.3-2.1,6.9-3.1,10.5-3.1c4.8,0,8.4,1.8,10.8,5.5
                                                  c2.4,3.7,3.7,8.7,3.7,15.1c0,5.6-0.8,11.6-2.4,17.9c-1.6,6.3-3.8,13.8-6.7,22.6c-2,6.1-3.6,11.1-4.6,14.8c-1,3.8-1.5,7-1.5,9.5
                                                  c0,1.5,0.2,2.6,0.7,3.4c0.5,0.8,1.3,1.2,2.6,1.2c4.3,0,9.8-4.1,16.5-12.2c6.7-8.1,12.5-17.7,17.5-28.8
                                                  c5-11.1,7.5-20.6,7.5-28.7c0-3.6-0.6-6.4-1.7-8.3c-1.1-1.9-2.7-3.2-4.8-3.8c1.1-1.8,2.2-3.1,3.4-4c1.2-0.9,2.3-1.3,3.4-1.3
                                                  c1.9,0,3.6,1.1,5,3.4c1.5,2.2,2.2,5.4,2.2,9.5c0,8.3-2.9,18.7-8.8,31.1c-5.9,12.5-12.9,23.4-21,32.7
                                                  c-8.1,9.3-15.3,13.9-21.5,13.9C473.4,355.3,471.1,354.6,469,353.2z"></path>
                                            <path class="st0" d="M524.4,345.5c-1.6-1.8-2.4-4.2-2.4-7c0-3,0.9-7.2,2.7-12.5c1.8-5.3,4-10,6.6-14c2.6-4,5.2-6,7.7-6
                                                  c0.7,0,1.3,0.2,1.8,0.7s0.8,1.1,0.8,1.9c0,1.1-1.3,3.7-3.8,7.8c-2.6,4.3-4.7,8.1-6.2,11.4c-1.5,3.4-2.3,6.6-2.3,9.6
                                                  c0,2.7,0.4,4.5,1.4,5.5c0.9,1,2.4,1.4,4.4,1.4c6.1,0,12.2-5.9,18.1-17.7l1.1,1.2c-2.2,6.5-5.4,11.6-9.7,15.2
                                                  c-4.3,3.6-8.8,5.5-13.5,5.5C528.2,348.2,526,347.3,524.4,345.5z M541.8,294.1c-0.9-0.7-1.4-1.6-1.4-2.8c0-1.5,0.9-2.9,2.8-4.2
                                                  c1.9-1.2,3.8-1.9,5.8-1.9c2.6,0,3.9,1.2,3.9,3.6c0,1.5-0.8,2.9-2.4,4.2c-1.6,1.4-3.4,2-5.2,2
                                                  C543.9,295.1,542.7,294.7,541.8,294.1z"></path>
                                            <path class="st0" d="M553.7,345.4c-1.5-2.2-2.3-5.1-2.3-8.7c0-7,2.4-16.4,7.3-28.4c4.9-11.9,10.3-22.7,16.3-32.3
                                                  c6-9.6,10.4-14.4,13-14.4c1.1,0,2,0.9,2.8,2.8c0.7,1.9,1.1,3.8,1.1,5.7c0,3.6-1.5,8.8-4.4,15.7s-6.8,13.9-11.6,21.1
                                                  c-4.8,7.1-9.9,12.9-15.3,17.3c-1,4.5-1.5,8.4-1.5,11.7c0,6,1.7,8.9,5.2,8.9c2.7,0,5.4-1.6,8.3-4.7c2.8-3.1,5.4-7,7.7-11.7
                                                  c1.5-7.7,4.4-16.4,8.7-26.3c4.3-9.9,8.8-18.3,13.6-25.4c4.7-7.1,8.3-10.6,10.6-10.6c1.1,0,2,1,2.8,2.8c0.7,1.9,1.1,3.8,1.1,5.7
                                                  c0,3.6-1.2,8.5-3.7,14.6c-2.4,6.1-5.8,12.3-10.1,18.7c-4.3,6.3-9.2,11.7-14.6,16.1c-1,4.5-1.5,8.4-1.5,11.7
                                                  c0,6,1.7,8.9,5.2,8.9c2.9,0,5.9-1.8,8.9-5.5c3-3.6,5.7-8,8.1-13.1l1.8,0.9c-6.8,14.2-14.1,21.3-22.2,21.3
                                                  c-3.2,0-5.6-1.1-7.1-3.2c-1.5-2.2-2.3-5.1-2.3-8.7c0-1.2,0-2,0.1-2.7c-5.9,9.7-12.1,14.6-18.6,14.6
                                                  C557.6,348.7,555.2,347.6,553.7,345.4z M574.3,304.3c4.1-6.5,7.5-12.6,10.1-18.6c2.6-5.9,3.9-10.2,3.9-12.8
                                                  c0-1.2-0.3-1.9-0.8-1.9c-1.1,0-3.4,2.7-6.8,7.9c-3.4,5.3-6.9,11.8-10.5,19.4c-3.6,7.7-6.4,15-8.5,21.9
                                                  C566,316.1,570.2,310.8,574.3,304.3z M601.5,305.5c3.6-5.7,6.5-11.1,8.6-16.2c2.1-5.1,3.2-9,3.2-11.7c0-1.2-0.3-1.9-0.8-1.9
                                                  c-1.1,0-3.1,2.2-6,6.7c-2.9,4.5-5.9,10.2-9.1,17.1c-3.1,6.9-5.7,13.9-7.8,20.8C593.9,316.1,597.9,311.1,601.5,305.5z"></path>
                                            <path class="st0" d="M606.1,348.1c-1.6-1.7-2.4-4-2.4-7.1c0-4.6,1.7-9.7,5-15.3c3.3-5.6,7.6-10.4,12.7-14.4
                                                  c5.1-3.9,10.1-5.9,15-5.9c3.1,0,5.6,0.8,7.7,2.4c2,1.6,3.1,3.7,3.1,6.3c0,1.8-0.5,3.1-1.5,3.8s-2.4,1.2-4.2,1.2
                                                  c0.4-1.4,0.6-2.7,0.6-4.1c0-1.9-0.5-3.5-1.4-4.7c-0.9-1.2-2.4-1.8-4.4-1.8c-3.5,0-7.1,1.9-10.9,5.7c-3.8,3.8-7,8.3-9.5,13.6
                                                  c-2.6,5.3-3.8,9.8-3.8,13.6c0,3,1.1,4.5,3.2,4.5c3.1,0,6.8-2.5,11.1-7.4c4.2-4.9,8.8-10.9,13.7-17.9c1,0.2,2.1,0.5,3.1,1
                                                  c1.1,0.5,1.6,1.1,1.6,1.9c0,0.6-0.4,1.6-1.1,3c-0.7,1.4-1.2,2.1-1.4,2.4c-1.3,2.2-2.4,4.2-3.2,6c-0.8,1.7-1.2,3.3-1.2,4.8
                                                  c0,1.3,0.3,2.5,1,3.5c0.7,1,1.7,1.6,3,1.6c2.3,0,5.1-1.6,8.6-4.8c3.5-3.2,6.9-7.7,10.3-13.5l1.2,1.2c-1.7,4.1-3.8,7.8-6.4,11
                                                  c-2.6,3.2-5.4,5.7-8.4,7.5c-3,1.8-5.9,2.7-8.6,2.7c-2.8,0-4.9-0.8-6.3-2.4c-1.5-1.6-2.2-3.5-2.2-5.7c0-1,0.1-2.1,0.4-3.4
                                                  c-3.5,4.6-6.7,8-9.5,10.2c-2.8,2.2-5.6,3.2-8.3,3.2C609.9,350.6,607.8,349.8,606.1,348.1z"></path>
                                            <path class="st0" d="M657.8,376c-1.3-1.1-2-2.8-2-5c0-2.9,1.1-5.5,3.4-7.9c2.3-2.4,4.9-4.5,7.8-6.3c2.9-1.7,6.9-3.8,11.7-6.2
                                                  c2.2-5.6,4.2-11.9,6-19.1c-7,9.9-13.4,14.8-19.2,14.8c-2.8,0-4.9-1-6.5-3.1s-2.4-4.8-2.4-8.2c0-5.1,1.7-10,5-14.6
                                                  c3.3-4.6,7.5-8.4,12.4-11.2c4.9-2.8,9.5-4.2,13.9-4.2c2.1,0,3.7,0.3,4.8,1c1.1,0.7,1.6,1.6,1.6,2.7c0,0.6-0.2,1.1-0.5,1.6
                                                  c-0.4,0.4-0.6,0.7-0.9,0.8c-0.8-1.2-2.4-1.7-4.7-1.7c-3.9,0-7.7,1.5-11.4,4.4c-3.7,2.9-6.6,6.5-8.9,10.7
                                                  c-2.3,4.2-3.4,7.9-3.4,11.3c0,1.9,0.4,3.3,1.1,4.2c0.7,1,1.7,1.5,3,1.5c2.1,0,4.8-1.4,8-4.3c3.2-2.9,6.3-6.5,9.5-11l1.4-6.1
                                                  c0.3-1.5,1-2.8,1.9-4.1c1-1.2,2.3-1.9,4.1-1.9c0.7,0,1.5,0.1,2.5,0.3c0,2.1-0.9,6.3-2.6,12.6c-1.7,6.3-3.9,12.7-6.5,19.2
                                                  c4.1-1.9,7.9-4.6,11.4-8.1c3.5-3.4,6.1-7.3,7.8-11.5l1.5,1.2c-1.7,4.7-4.6,9-8.9,12.9c-4.3,3.9-8.7,6.8-13.1,8.9
                                                  c-3.7,8.8-7.4,15.7-11.2,20.8c-3.8,5-7.7,7.5-11.8,7.5C660.8,377.7,659.2,377.1,657.8,376z M669.1,368.9
                                                  c2.7-3.4,5.5-8.5,8.4-15.3c-5.7,2.9-10.2,5.5-13.3,8c-3.1,2.5-4.7,5.2-4.7,8.2c0,1.2,0.3,2.2,0.8,3c0.5,0.7,1.2,1.1,2.1,1.1
                                                  C664.1,374,666.4,372.3,669.1,368.9z"></path>
                                            <path class="st0" d="M706.1,346.5c-2.5-2.5-3.7-5.7-3.7-9.7c0-4.6,1.5-9.5,4.6-14.7c3.1-5.3,6.9-9.7,11.6-13.3
                                                  c4.7-3.6,9.3-5.4,13.7-5.4c4.9,0,7.3,2.4,7.3,7.1c0,3.8-1.5,7.3-4.4,10.6c-2.9,3.3-6.6,6-11.2,8.1c-4.6,2.1-9.1,3.4-13.7,3.8
                                                  c-0.3,1.3-0.5,2.7-0.5,4.2c0,2.8,0.7,5.1,2.1,7c1.4,1.9,3.8,2.8,7.2,2.8c4.8,0,9.6-2,14.5-5.9c4.9-3.9,8.8-8.8,11.9-14.6l1.4,1
                                                  c-3.1,6.9-7.5,12.4-13.1,16.6s-11.3,6.3-17.2,6.3C712.1,350.3,708.6,349,706.1,346.5z M721.3,325.9c3.6-2.1,6.7-4.5,9.3-7.4
                                                  c2.6-2.8,3.8-5.8,3.8-8.9c0-0.9-0.2-1.6-0.5-2c-0.4-0.4-1-0.6-1.9-0.6c-2.4,0-5.1,1.2-8,3.6c-2.9,2.4-5.5,5.5-7.9,9.2
                                                  c-2.4,3.7-4.1,7.4-5.1,11C714.3,329.6,717.7,328,721.3,325.9z"></path>
                                        </g>
                                    </g>
                                    <g>
                                        <g>
                                            <path class="st0" d="M327.9,365.2c1.8,2,2.7,4.3,2.7,7.2c0,5-1.8,9.4-5.4,13.4c-3.5,3.8-7.5,5.7-11.8,5.7c-2.7,0-5-0.9-6.8-2.6
                                                  c-1.8-1.8-2.7-4.3-2.7-7.5c0-4.6,1.8-8.9,5.3-13c3.6-4.1,7.4-6.1,11.5-6.1C323.8,362.3,326.1,363.3,327.9,365.2z M323.2,382.3
                                                  c2-4.1,3.1-8,3.1-11.5c0-2.2-0.5-3.9-1.4-5.1c-0.9-1.2-2.3-1.8-4.1-1.8c-3.6,0-6.6,2.5-9.1,7.4c-2.1,4.1-3.2,8.1-3.2,12
                                                  c0,2.3,0.5,4,1.4,5.1c1,1.2,2.3,1.7,4,1.7C317.6,390,320.7,387.4,323.2,382.3z"></path>
                                            <path class="st0" d="M348.1,373c0.7,0.8,1.1,1.5,1.1,2.2c0,0.7-0.2,1.2-0.6,1.5c-0.4,0.4-0.8,0.5-1.3,0.5
                                                  c-0.5,0-0.9-0.2-1.3-0.5c-0.3-0.3-0.5-0.7-0.5-1.2c0-0.4,0.1-0.8,0.3-1.2c0.2-0.4,0.3-0.7,0.3-0.8c0-0.3-0.1-0.5-0.4-0.6
                                                  c-0.3-0.2-0.7-0.3-1.3-0.3c-2.2,0-4.1,1.3-5.7,3.8c-1.6,2.6-2.4,5.2-2.4,8c0,1.6,0.3,2.8,1,3.7c0.6,0.9,1.6,1.3,2.9,1.3
                                                  c1,0,2-0.3,3-0.9c1-0.6,1.9-1.4,2.7-2.4l0.1-0.2l0.6,0.5c-0.9,1.2-1.9,2.2-2.7,2.9c-1.5,1.2-3.3,1.7-5.2,1.7
                                                  c-1.8,0-3.3-0.6-4.4-1.8c-1.1-1.2-1.7-2.8-1.7-4.9c0-3.2,1.2-6.1,3.7-8.7c2.5-2.6,5.1-4,8-4C346.1,371.9,347.3,372.3,348.1,373
                                                  z"></path>
                                            <path class="st0" d="M355.3,376.2c2.7-2.9,5.4-4.3,8.3-4.3c1.1,0,1.9,0.3,2.5,0.8c0.6,0.5,0.9,1.2,0.9,2.2c0,2-1.1,3.7-3.4,5.1
                                                  c-2.3,1.4-4.7,2.3-7.2,2.6l-1.2,0.1c-0.2,0.6-0.3,1-0.4,1.4c-0.1,0.3-0.1,0.8-0.1,1.3c0,1.2,0.4,2.2,1.2,2.9
                                                  c0.8,0.7,1.7,1,2.8,1c1,0,2.1-0.3,3.2-1c0.6-0.4,1.6-1.1,2.8-2.2l0.5,0.5c-0.6,0.8-1.5,1.6-2.6,2.4c-2,1.5-4,2.2-6,2.2
                                                  c-1.4,0-2.7-0.5-3.8-1.6c-1.1-1-1.6-2.5-1.6-4.5C351.2,382.1,352.6,379.1,355.3,376.2z M361.8,379c1.6-1.5,2.4-2.9,2.4-4.4
                                                  c0-0.5-0.1-0.9-0.4-1.3c-0.2-0.3-0.6-0.5-1.1-0.5c-0.9,0-1.7,0.4-2.6,1.2c-0.8,0.8-1.6,1.6-2.3,2.6c-0.7,1.1-1.3,2.2-1.7,3.3
                                                  c-0.2,0.6-0.5,1.2-0.7,1.9C358.1,381.4,360.2,380.5,361.8,379z"></path>
                                            <path class="st0" d="M383.5,372.6c0.3,0.3,0.6,0.7,0.7,1.2l0.1,0.3l0.5-1.6c0.1-0.2,0.1-0.3,0.1-0.4c0-0.1,0.1-0.1,0.3-0.1
                                                  l2.3-0.3c0.1,0,0.2,0,0.2,0.1c0,0,0,0.1,0,0.3c-0.1,0.2-0.1,0.3-0.1,0.4c0,0.1-0.1,0.3-0.1,0.4l-2,7.5c-0.4,1.6-0.8,3-1.1,4.2
                                                  c-0.5,2.1-0.7,3.4-0.7,3.7c0,0.2,0.1,0.3,0.2,0.4c0.1,0.1,0.2,0.1,0.4,0.1c0.1,0,0.3,0,0.4-0.1c0.1-0.1,0.3-0.2,0.5-0.4
                                                  l0.4-0.3c0.1-0.1,0.2-0.2,0.4-0.3c0.1-0.1,0.3-0.3,0.5-0.5l1.3-1.3l0.5,0.4c-1.4,1.9-2.6,3.1-3.5,3.8c-0.9,0.7-1.7,1-2.5,1
                                                  c-0.5,0-0.9-0.2-1.2-0.5c-0.3-0.4-0.4-0.8-0.4-1.4c0-0.5,0.1-1.2,0.3-2.2c0.2-0.9,0.4-1.7,0.5-2.4c-0.2,0.4-0.6,1-1.2,1.8
                                                  c-0.6,0.8-1.3,1.6-2.1,2.3c-1,0.9-1.9,1.5-2.8,1.9c-0.7,0.3-1.4,0.4-2,0.4c-1.1,0-2.1-0.5-3-1.4c-0.9-0.9-1.3-2.2-1.3-3.9
                                                  c0-2.9,1.3-6,3.8-9.2c2.6-3.3,5.4-5,8.2-5C382.1,371.8,382.9,372.1,383.5,372.6z M382.9,373.4c-0.4-0.5-1-0.7-1.6-0.7
                                                  c-2.2,0-4.3,1.7-6.2,5.2c-1.7,3.1-2.5,5.7-2.5,7.9c0,1.1,0.2,1.9,0.7,2.4c0.5,0.5,1,0.8,1.7,0.8c2,0,4-1.7,5.9-5.1
                                                  c1.8-3.1,2.7-5.9,2.7-8.3C383.5,374.7,383.3,373.9,382.9,373.4z"></path>
                                            <path class="st0" d="M389.8,390.7l3.5-12.9c0.3-1.1,0.5-1.8,0.5-2c0-0.2,0.1-0.5,0.1-0.7c0-0.4-0.1-0.7-0.3-1
                                                  c-0.2-0.2-0.7-0.3-1.3-0.3c-0.2,0-0.3,0-0.5,0c-0.2,0-0.3,0-0.5,0.1v-0.7c0.9-0.1,1.5-0.2,1.9-0.3s0.8-0.2,1.2-0.3l3.6-0.8
                                                  c0.1,0.1,0.1,0.1,0.2,0.2l-2.7,9c1.7-2.6,3-4.5,4.2-5.8c2-2.2,3.7-3.4,5.3-3.4c0.6,0,1.1,0.1,1.5,0.4c0.8,0.5,1.2,1.3,1.2,2.5
                                                  c0,0.3,0,0.7-0.1,1c-0.1,0.4-0.2,0.8-0.3,1.2l-2.7,10c-0.1,0.2-0.1,0.5-0.2,0.8c-0.1,0.3-0.1,0.5-0.1,0.6c0,0.2,0,0.4,0.1,0.6
                                                  s0.2,0.3,0.5,0.3c0.3,0,0.7-0.2,1.2-0.6c0.4-0.4,1.2-1.3,2.2-2.7l0.6,0.5c-1.1,1.5-1.9,2.6-2.6,3.3c-1.1,1.1-2.1,1.7-3.1,1.7
                                                  c-0.4,0-0.9-0.2-1.3-0.5c-0.4-0.3-0.6-0.9-0.6-1.7c0-0.2,0-0.5,0.1-0.8c0-0.3,0.1-0.5,0.1-0.7l2.6-10.2c0.1-0.6,0.2-1,0.3-1.4
                                                  c0-0.4,0.1-0.6,0.1-0.8c0-0.3-0.1-0.6-0.2-0.9c-0.2-0.2-0.4-0.4-0.8-0.4c-1,0-2.3,0.9-3.9,2.8c-0.9,1.1-1.8,2.5-2.8,4
                                                  c-0.7,1.2-1.3,2.4-1.7,3.5c-0.4,1.1-1.1,3.2-1.9,6.3H389.8z"></path>
                                            <path class="st0" d="M419.5,390.1c1-0.1,1.6-0.3,2-0.5c0.6-0.4,1-1.3,1.4-2.6L428,368c0.1-0.4,0.2-0.8,0.3-1.3
                                                  c0.1-0.5,0.1-1,0.1-1.3c0-0.7-0.2-1.1-0.7-1.3c-0.5-0.2-1.2-0.4-2.2-0.4v-0.7h10.3c2,0,3.6,0.3,4.9,0.8c2.5,1,3.7,2.7,3.7,5.3
                                                  c0,2.5-1.1,4.4-3.2,5.8c-1.2,0.7-2.8,1.3-4.9,1.8l3.8,10.5c0.4,1,0.8,1.8,1.3,2.3c0.5,0.5,1.2,0.8,2.2,0.8v0.7h-6.1l-5.1-13.9
                                                  l-2.7-0.2l-2.3,8.9c-0.1,0.4-0.2,0.7-0.3,1.1c-0.1,0.7-0.2,1.2-0.2,1.6c0,0.7,0.2,1.1,0.7,1.4c0.4,0.3,1.2,0.4,2.2,0.4v0.7
                                                  h-10.2V390.1z M431.9,375.2c0.2,0,0.4,0,0.7,0c2.1,0,3.9-0.5,5.3-1.5c1.4-1,2.2-2.7,2.2-5c0-1.8-0.5-3-1.5-3.6
                                                  c-1-0.6-2.3-1-3.8-1c-0.6,0-1,0.1-1.3,0.2c-0.3,0.1-0.5,0.5-0.7,0.9l-2.6,9.8C431.1,375.2,431.7,375.2,431.9,375.2z"></path>
                                            <path class="st0" d="M450.8,376.2c2.7-2.9,5.4-4.3,8.3-4.3c1.1,0,1.9,0.3,2.5,0.8c0.6,0.5,0.9,1.2,0.9,2.2c0,2-1.1,3.7-3.4,5.1
                                                  c-2.3,1.4-4.7,2.3-7.2,2.6l-1.2,0.1c-0.2,0.6-0.3,1-0.4,1.4c-0.1,0.3-0.1,0.8-0.1,1.3c0,1.2,0.4,2.2,1.2,2.9
                                                  c0.8,0.7,1.7,1,2.8,1c1,0,2.1-0.3,3.2-1c0.6-0.4,1.6-1.1,2.8-2.2l0.5,0.5c-0.6,0.8-1.5,1.6-2.6,2.4c-2,1.5-4,2.2-6,2.2
                                                  c-1.4,0-2.7-0.5-3.8-1.6c-1.1-1-1.6-2.5-1.6-4.5C446.7,382.1,448.1,379.1,450.8,376.2z M457.3,379c1.6-1.5,2.4-2.9,2.4-4.4
                                                  c0-0.5-0.1-0.9-0.4-1.3c-0.2-0.3-0.6-0.5-1.1-0.5c-0.9,0-1.7,0.4-2.6,1.2c-0.8,0.8-1.6,1.6-2.3,2.6c-0.7,1.1-1.3,2.2-1.7,3.3
                                                  c-0.2,0.6-0.5,1.2-0.7,1.9C453.6,381.4,455.7,380.5,457.3,379z"></path>
                                            <path class="st0" d="M469.2,376.2c2.7-2.9,5.4-4.3,8.3-4.3c1.1,0,1.9,0.3,2.5,0.8c0.6,0.5,0.9,1.2,0.9,2.2c0,2-1.1,3.7-3.4,5.1
                                                  c-2.3,1.4-4.7,2.3-7.2,2.6l-1.2,0.1c-0.2,0.6-0.3,1-0.4,1.4c-0.1,0.3-0.1,0.8-0.1,1.3c0,1.2,0.4,2.2,1.2,2.9
                                                  c0.8,0.7,1.7,1,2.8,1c1,0,2.1-0.3,3.2-1c0.6-0.4,1.6-1.1,2.8-2.2l0.5,0.5c-0.6,0.8-1.5,1.6-2.6,2.4c-2,1.5-4,2.2-6,2.2
                                                  c-1.4,0-2.7-0.5-3.8-1.6c-1.1-1-1.6-2.5-1.6-4.5C465.1,382.1,466.5,379.1,469.2,376.2z M475.7,379c1.6-1.5,2.4-2.9,2.4-4.4
                                                  c0-0.5-0.1-0.9-0.4-1.3c-0.2-0.3-0.6-0.5-1.1-0.5c-0.9,0-1.7,0.4-2.6,1.2c-0.8,0.8-1.6,1.6-2.3,2.6c-0.7,1.1-1.3,2.2-1.7,3.3
                                                  c-0.2,0.6-0.5,1.2-0.7,1.9C472,381.4,474.1,380.5,475.7,379z"></path>
                                            <path class="st0" d="M499.3,365.6c-0.3,0.4-0.7,0.6-1.2,0.6c-0.5,0-0.8-0.1-1.1-0.5c-0.3-0.3-0.4-0.7-0.4-1.1
                                                  c0-0.3,0.1-0.8,0.4-1.5c0-0.2-0.1-0.3-0.3-0.5c-0.2-0.1-0.3-0.2-0.6-0.2c-1,0-1.9,1.1-2.5,3.4c-0.4,1.3-0.8,3.5-1.3,6.6h4.5
                                                  l-0.3,1.4h-4.6l-3.9,13.7c-0.8,3.6-1.9,6.5-3.3,8.8c-1.4,2.2-3.1,3.3-5.3,3.3c-1,0-1.8-0.3-2.4-0.8c-0.6-0.5-0.9-1.1-0.9-1.8
                                                  c0-0.4,0.1-0.8,0.4-1.2c0.3-0.4,0.7-0.5,1.2-0.5c0.5,0,0.8,0.2,1.2,0.5s0.5,0.7,0.5,1.2c0,0.3-0.1,0.5-0.2,0.8
                                                  c-0.1,0.3-0.2,0.4-0.2,0.5c0,0.1,0.1,0.2,0.2,0.3c0.2,0.1,0.4,0.1,0.6,0.1c1.1,0,2.1-0.9,2.9-2.8c0.4-1,0.8-2.3,1.2-4l4.8-17.9
                                                  h-3.7l0.3-1.4h3.9c0.7-3.2,1.6-5.6,2.5-7.2c1.4-2.4,3.1-3.6,5.1-3.6c0.9,0,1.7,0.3,2.3,0.8c0.6,0.5,0.9,1.2,0.9,1.9
                                                  C499.8,364.8,499.6,365.3,499.3,365.6z"></path>
                                            <path class="st0" d="M503.7,390.1c1-0.1,1.6-0.3,2-0.5c0.6-0.4,1-1.3,1.4-2.6l5.1-18.9c0.2-0.8,0.3-1.3,0.4-1.6
                                                  c0.1-0.3,0.1-0.6,0.1-0.9c0-0.7-0.2-1.2-0.6-1.4c-0.4-0.3-1.2-0.4-2.3-0.5v-0.7H520v0.7c-1.1,0.2-1.8,0.4-2.3,0.7
                                                  c-0.4,0.3-0.8,1.1-1.1,2.4l-5.1,18.9c-0.2,0.7-0.3,1.2-0.4,1.7c-0.1,0.4-0.1,0.8-0.1,1c0,0.7,0.2,1.2,0.7,1.4
                                                  c0.5,0.2,1.2,0.4,2.1,0.4v0.7h-10.2V390.1z"></path>
                                            <path class="st0" d="M519.4,384.5h0.7c0.3,1.7,0.6,2.9,1.1,3.7c0.7,1.4,1.8,2.2,3.3,2.2c0.8,0,1.5-0.3,2.1-0.9
                                                  c0.6-0.6,0.8-1.4,0.8-2.4c0-0.6-0.1-1.1-0.2-1.5c-0.1-0.4-0.3-0.7-0.5-1.1l-1.7-2.6c-1-1.6-1.6-2.6-1.9-3.1
                                                  c-0.4-0.8-0.6-1.6-0.6-2.4c0-1.2,0.4-2.3,1.3-3.2c0.8-0.9,2-1.4,3.6-1.4c0.7,0,1.4,0.1,2.3,0.4c0.8,0.3,1.4,0.4,1.7,0.4
                                                  c0.3,0,0.6-0.1,0.7-0.2c0.2-0.1,0.3-0.3,0.4-0.6h0.6l-0.8,5.9h-0.7c-0.2-1.4-0.4-2.4-0.8-3.1c-0.6-1.3-1.7-1.9-3.1-1.9
                                                  c-0.6,0-1.1,0.2-1.6,0.6c-0.5,0.4-0.7,0.9-0.7,1.7c0,0.6,0.1,1.1,0.3,1.5s0.7,1.2,1.4,2.3l1.4,2.1c0.7,1.1,1.3,2,1.6,2.7
                                                  c0.3,0.7,0.5,1.4,0.5,2.3c0,1.5-0.6,2.8-1.9,3.8c-1.2,1-2.7,1.5-4.4,1.5c-0.6,0-1.3-0.1-2.4-0.4c-1-0.2-1.6-0.4-1.8-0.4
                                                  c-0.3,0-0.5,0.1-0.6,0.2c-0.1,0.1-0.2,0.3-0.4,0.6h-0.7L519.4,384.5z"></path>
                                            <path class="st0" d="M541.8,365.4c0.1-0.2,0.1-0.4,0.1-0.5c0-0.2,0-0.3,0-0.4c0-0.5-0.2-0.8-0.6-0.9c-0.4-0.1-1.1-0.1-2.2-0.1
                                                  v-0.7c0.6-0.1,1.3-0.2,2.1-0.3s1.3-0.2,1.6-0.2c0.8-0.1,1.7-0.3,2.8-0.6c0.1,0,0.2,0.1,0.3,0.2l-6.7,25.1
                                                  c-0.1,0.6-0.2,1-0.3,1.1c0,0.1,0,0.3,0,0.4c0,0.3,0,0.5,0.1,0.7c0.1,0.2,0.3,0.3,0.5,0.3c0.5,0,1.1-0.4,1.9-1.3
                                                  c0.8-0.9,1.4-1.8,2-2.6l0.5,0.4c-1.2,1.8-2.1,3-2.7,3.7c-1.1,1.2-2.3,1.7-3.4,1.7c-0.5,0-0.9-0.1-1.3-0.4
                                                  c-0.6-0.4-0.9-1-0.9-1.9c0-0.3,0.1-0.8,0.2-1.4c0.1-0.3,0.2-0.8,0.3-1.2L541.8,365.4z"></path>
                                            <path class="st0" d="M560.7,372.6c0.3,0.3,0.6,0.7,0.7,1.2l0.1,0.3l0.5-1.6c0.1-0.2,0.1-0.3,0.1-0.4c0-0.1,0.1-0.1,0.3-0.1
                                                  l2.3-0.3c0.1,0,0.2,0,0.2,0.1c0,0,0,0.1,0,0.3c-0.1,0.2-0.1,0.3-0.1,0.4c0,0.1-0.1,0.3-0.1,0.4l-2,7.5c-0.4,1.6-0.8,3-1.1,4.2
                                                  c-0.5,2.1-0.7,3.4-0.7,3.7c0,0.2,0.1,0.3,0.2,0.4c0.1,0.1,0.2,0.1,0.4,0.1c0.1,0,0.3,0,0.4-0.1c0.1-0.1,0.3-0.2,0.5-0.4
                                                  l0.4-0.3c0.1-0.1,0.2-0.2,0.4-0.3c0.1-0.1,0.3-0.3,0.5-0.5l1.3-1.3l0.5,0.4c-1.4,1.9-2.6,3.1-3.5,3.8s-1.7,1-2.5,1
                                                  c-0.5,0-0.9-0.2-1.2-0.5c-0.3-0.4-0.4-0.8-0.4-1.4c0-0.5,0.1-1.2,0.3-2.2c0.2-0.9,0.4-1.7,0.5-2.4c-0.2,0.4-0.6,1-1.2,1.8
                                                  c-0.6,0.8-1.3,1.6-2.1,2.3c-1,0.9-1.9,1.5-2.8,1.9c-0.7,0.3-1.4,0.4-2,0.4c-1.1,0-2.1-0.5-3-1.4c-0.9-0.9-1.3-2.2-1.3-3.9
                                                  c0-2.9,1.3-6,3.8-9.2c2.6-3.3,5.4-5,8.2-5C559.3,371.8,560.1,372.1,560.7,372.6z M560.1,373.4c-0.4-0.5-1-0.7-1.6-0.7
                                                  c-2.2,0-4.3,1.7-6.2,5.2c-1.7,3.1-2.5,5.7-2.5,7.9c0,1.1,0.2,1.9,0.7,2.4c0.5,0.5,1,0.8,1.7,0.8c2,0,4-1.7,5.9-5.1
                                                  c1.8-3.1,2.7-5.9,2.7-8.3C560.7,374.7,560.5,373.9,560.1,373.4z"></path>
                                            <path class="st0" d="M567,390.7l3.5-12.9c0.3-1.1,0.5-1.8,0.5-2c0-0.2,0.1-0.5,0.1-0.7c0-0.4-0.1-0.7-0.3-1
                                                  c-0.2-0.2-0.7-0.3-1.3-0.3c-0.2,0-0.3,0-0.5,0c-0.2,0-0.3,0-0.5,0.1v-0.7c0.9-0.1,1.5-0.2,1.9-0.3s0.8-0.2,1.2-0.3l3.6-0.8
                                                  c0.1,0.1,0.1,0.1,0.2,0.2l-2.7,9c1.7-2.6,3-4.5,4.2-5.8c2-2.2,3.7-3.4,5.3-3.4c0.6,0,1.1,0.1,1.5,0.4c0.8,0.5,1.2,1.3,1.2,2.5
                                                  c0,0.3,0,0.7-0.1,1c-0.1,0.4-0.2,0.8-0.3,1.2l-2.7,10c-0.1,0.2-0.1,0.5-0.2,0.8c-0.1,0.3-0.1,0.5-0.1,0.6c0,0.2,0,0.4,0.1,0.6
                                                  s0.2,0.3,0.5,0.3c0.3,0,0.7-0.2,1.2-0.6c0.4-0.4,1.2-1.3,2.2-2.7l0.6,0.5c-1.1,1.5-1.9,2.6-2.6,3.3c-1.1,1.1-2.1,1.7-3.1,1.7
                                                  c-0.4,0-0.9-0.2-1.3-0.5s-0.6-0.9-0.6-1.7c0-0.2,0-0.5,0.1-0.8c0-0.3,0.1-0.5,0.1-0.7l2.6-10.2c0.1-0.6,0.2-1,0.3-1.4
                                                  c0-0.4,0.1-0.6,0.1-0.8c0-0.3-0.1-0.6-0.2-0.9c-0.2-0.2-0.4-0.4-0.8-0.4c-1,0-2.3,0.9-3.9,2.8c-0.9,1.1-1.8,2.5-2.8,4
                                                  c-0.7,1.2-1.3,2.4-1.7,3.5c-0.4,1.1-1.1,3.2-1.9,6.3H567z"></path>
                                            <path class="st0" d="M601.8,372.6c0.3,0.3,0.5,0.8,0.6,1.6l2.4-8.6c0.1-0.2,0.1-0.4,0.1-0.6c0-0.2,0-0.4,0-0.5
                                                  c0-0.5-0.1-0.9-0.3-1c-0.2-0.1-0.5-0.2-0.8-0.2c-0.2,0-0.4,0-0.6,0c-0.2,0-0.5,0-0.8,0.1v-0.7c1.5-0.2,3.6-0.6,6.4-1.1l0.2,0.2
                                                  l0,0.2l-4,15l-2.7,9.9c-0.1,0.2-0.1,0.4-0.1,0.6c0,0.2-0.1,0.4-0.1,0.5c0,0.4,0.1,0.6,0.3,0.7c0.2,0.1,0.3,0.2,0.5,0.2
                                                  c0.4,0,1-0.4,1.7-1.1c0.4-0.4,1-1.1,1.7-2l0.5,0.5l-0.3,0.4c-0.5,0.8-1.1,1.5-1.9,2.3c-1.4,1.4-2.7,2.1-3.8,2.1
                                                  c-0.4,0-0.7-0.1-1-0.3c-0.6-0.3-0.8-0.9-0.8-1.8c0-0.3,0-0.8,0.1-1.4c0.1-0.6,0.2-1.3,0.4-2.1c-1,1.6-2.1,2.9-3.4,4
                                                  c-1.2,1-2.6,1.5-4,1.5c-1.2,0-2.2-0.4-3.1-1.3c-0.9-0.9-1.3-2.2-1.3-4c0-3,1.4-6.2,4.1-9.4c2.7-3.2,5.3-4.8,7.9-4.8
                                                  C600.6,371.8,601.4,372.1,601.8,372.6z M591.7,388.1c0.4,0.6,1,0.9,1.9,0.9c1.9,0,3.8-1.6,5.6-4.8c1.7-3,2.6-5.9,2.6-8.5
                                                  c0-0.8-0.1-1.5-0.4-2.1c-0.3-0.6-0.8-0.8-1.7-0.8c-2.1,0-4.1,1.7-6,5.1c-1.7,3.1-2.6,5.7-2.6,8
                                                  C591.2,386.7,591.4,387.5,591.7,388.1z"></path>
                                            <path class="st0" d="M609.2,384.5h0.7c0.3,1.7,0.6,2.9,1.1,3.7c0.7,1.4,1.8,2.2,3.3,2.2c0.8,0,1.5-0.3,2.1-0.9
                                                  c0.6-0.6,0.8-1.4,0.8-2.4c0-0.6-0.1-1.1-0.2-1.5c-0.1-0.4-0.3-0.7-0.5-1.1l-1.7-2.6c-1-1.6-1.6-2.6-1.9-3.1
                                                  c-0.4-0.8-0.6-1.6-0.6-2.4c0-1.2,0.4-2.3,1.3-3.2s2-1.4,3.6-1.4c0.7,0,1.4,0.1,2.3,0.4c0.8,0.3,1.4,0.4,1.7,0.4
                                                  c0.3,0,0.6-0.1,0.7-0.2c0.2-0.1,0.3-0.3,0.4-0.6h0.6l-0.8,5.9h-0.7c-0.2-1.4-0.4-2.4-0.8-3.1c-0.6-1.3-1.7-1.9-3.1-1.9
                                                  c-0.6,0-1.1,0.2-1.6,0.6c-0.5,0.4-0.7,0.9-0.7,1.7c0,0.6,0.1,1.1,0.3,1.5c0.2,0.4,0.7,1.2,1.4,2.3l1.4,2.1
                                                  c0.7,1.1,1.3,2,1.6,2.7c0.3,0.7,0.5,1.4,0.5,2.3c0,1.5-0.6,2.8-1.9,3.8c-1.2,1-2.7,1.5-4.4,1.5c-0.6,0-1.3-0.1-2.4-0.4
                                                  c-1-0.2-1.6-0.4-1.8-0.4c-0.3,0-0.5,0.1-0.6,0.2c-0.1,0.1-0.2,0.3-0.4,0.6h-0.7L609.2,384.5z"></path>
                                        </g>
                                    </g>
                                    <g>
                                        <path class="st0" d="M78.7,193.6c0,0-3.7-12.2-23.9-11.6c0,0-4.4,13.3,16,19.8c0,0-1.1-2.5-4.3-7.3c0,0,4.7,3.7,7.6,3.9
                                              c2.9,0.2,6.4-0.4,6.4-0.4L78.7,193.6z"></path>
                                        <path class="st0" d="M96.1,129.4c0,0,1.7-9.9-13.3-14.6c0,0-8.1,8.7,4.5,18.6c0,0,0.1-2.1-0.4-6.5c0,0,2.1,3.9,4.1,4.8
                                              c2,0.9,4.8,1.3,4.8,1.3L96.1,129.4z"></path>
                                        <path class="st0" d="M415.9,90.9c0,0,9.9-9.8-2.7-23.2c0,0-15.8,4.9-10.1,22.7c0,0,1.8-2.2,4.8-7.3c0,0-0.9,5.4,0.6,7.5
                                              s4.2,4.1,4.2,4.1L415.9,90.9z"></path>
                                        <path class="st0" d="M465.6,124.5c0,0,9.9-9.8-2.7-23.2c0,0-15.8,4.9-10.1,22.7c0,0,1.8-2.2,4.8-7.3c0,0-0.9,5.4,0.6,7.5
                                              s4.2,4.1,4.2,4.1L465.6,124.5z"></path>
                                        <path class="st0" d="M344.2,74.1c0,0,9.9-9.8-2.7-23.2c0,0-15.8,4.9-10.1,22.7c0,0,1.8-2.2,4.8-7.3c0,0-0.9,5.4,0.6,7.5
                                              c1.5,2.1,4.2,4.1,4.2,4.1L344.2,74.1z"></path>
                                        <path class="st0" d="M345.4,124.5c0,0,9.9-9.8-2.7-23.2c0,0-15.8,4.9-10.1,22.7c0,0,1.8-2.2,4.8-7.3c0,0-0.9,5.4,0.6,7.5
                                              s4.2,4.1,4.2,4.1L345.4,124.5z"></path>
                                        <path class="st0" d="M363.1,92.6c0,0,15-2.8,14.8-19.8c0,0-16.2-4-24.7,13c0,0,3.1-0.8,9.1-3.4c0,0-4.6,3.9-4.9,6.3
                                              c-0.3,2.4,0.3,5.4,0.3,5.4L363.1,92.6z"></path>
                                        <path class="st0" d="M418.1,114.7c0,0,10,9.7,28.1,1.7c0,0-3.2-13.7-25.3-12.1c0,0,2.3,1.9,7.9,5.1c0,0-6.3-1.6-9-0.7
                                              c-2.7,0.9-5.6,2.7-5.6,2.7L418.1,114.7z"></path>
                                        <path class="st0" d="M459,140.5c0,0,7.1,11.3,26.9,6.8c0,0,0.6-14-21.5-16.4c0,0,1.8,2.3,6.3,6.4c0,0-5.7-2.7-8.6-2.4
                                              c-2.9,0.4-6.2,1.6-6.2,1.6L459,140.5z"></path>
                                        <path class="st0" d="M499.4,200.3c0,0,7.1,11.3,26.9,6.8c0,0,0.6-14-21.5-16.4c0,0,1.8,2.3,6.3,6.4c0,0-5.7-2.7-8.6-2.4
                                              c-2.9,0.4-6.2,1.6-6.2,1.6L499.4,200.3z"></path>
                                        <path class="st0" d="M464.6,224.6c0,0-1.8,12,10.5,13.6c0,0,7-12.2-3.1-20.6c0,0-0.2,2.5,0.1,7.4c0,0-1.6-4-3.3-4.5
                                              c-1.7-0.5-3.9-0.3-3.9-0.3L464.6,224.6z"></path>
                                        <path class="st0" d="M381.8,223.3c0,0-4.9,8.1,8.3,18c0,0,10.7-4.6,1.6-18.2c0,0-0.8,1.8-1.6,5.9c0,0-0.8-4.3-2.5-5.8
                                              c-1.7-1.5-4.3-3-4.3-3L381.8,223.3z"></path>
                                        <path class="st0" d="M396.9,207.4c0,0,3.2,8.5,17.5,7.5c0,0,2.5-9.5-12.2-13.6c0,0,0.9,1.7,3.3,5.1c0,0-3.5-2.5-5.5-2.5
                                              c-2,0-4.5,0.5-4.5,0.5L396.9,207.4z"></path>
                                        <path class="st0" d="M334.5,192.2c0,0-9.2,10.2,4.2,23.1c0,0,15.4-5.6,8.6-23.1c0,0-1.7,2.3-4.3,7.5c0,0,0.5-5.4-1.1-7.4
                                              c-1.7-2-4.4-3.9-4.4-3.9L334.5,192.2z"></path>
                                        <path class="st0" d="M500.9,216.9c0,0-1.3,12.7,18.4,17.7c0,0,9.5-11.5-7.5-23.4c0,0,0,2.7,1.2,8.2c0,0-3-4.8-5.7-5.8
                                              c-2.7-1-6.3-1.4-6.3-1.4L500.9,216.9z"></path>
                                        <path class="st0" d="M477.7,170.9c0,0,5.7,11.9,25.9,9.2c0,0,2.3-13.8-19.2-18.2c0,0,1.5,2.4,5.4,6.9c0,0-5.3-3.2-8.2-3.1
                                              s-6.4,1-6.4,1L477.7,170.9z"></path>
                                        <path class="st0" d="M439.8,169.1c0,0,5.7,11.9,25.9,9.2c0,0,2.3-13.8-19.2-18.2c0,0,1.5,2.4,5.4,6.9c0,0-5.3-3.2-8.2-3.1
                                              c-2.9,0.1-6.4,1-6.4,1L439.8,169.1z"></path>
                                        <path class="st0" d="M430.4,213c0,0,2.7,8.9,14.9,9.4c0,0,2.2-9.2-10.4-14.9c0,0,0.7,1.8,2.8,5.4c0,0-3-2.9-4.7-3.1
                                              c-1.7-0.3-3.8,0-3.8,0L430.4,213z"></path>
                                        <path class="st0" d="M411.6,181.4c0,0,12,8,28-2.6c0,0-6.2-13-27.6-8.1c0,0,2.7,1.5,8.8,3.8c0,0-6.5-0.6-9,0.6
                                              c-2.5,1.3-4.9,3.5-4.9,3.5L411.6,181.4z"></path>
                                        <path class="st0" d="M319.6,160.9c0,0,9.7,6.5,22.6-2.1c0,0-5-10.5-22.3-6.5c0,0,2.2,1.2,7.1,3.1c0,0-5.3-0.5-7.3,0.5
                                              s-4,2.8-4,2.8L319.6,160.9z"></path>
                                        <path class="st0" d="M199.5,173.2c0,0,11.4-2.9,10.2-16c0,0-12.7-2.4-18.2,11.1c0,0,2.3-0.8,6.8-3c0,0-3.3,3.2-3.4,5
                                              c-0.1,1.9,0.6,4.1,0.6,4.1L199.5,173.2z"></path>
                                        <path class="st0" d="M256.5,151.9c0,0,11.4-2.9,10.2-16c0,0-12.7-2.4-18.2,11.1c0,0,2.3-0.8,6.8-3c0,0-3.3,3.2-3.4,5
                                              c-0.1,1.9,0.6,4.1,0.6,4.1L256.5,151.9z"></path>
                                        <path class="st0" d="M288.9,121.1c0,0,8.8-6.7,0.7-18.1c0,0-12.7,2.5-10.5,16.6c0,0,1.7-1.5,4.5-5.2c0,0-1.3,4.1-0.4,5.8
                                              c0.9,1.7,2.7,3.5,2.7,3.5L288.9,121.1z"></path>
                                        <path class="st0" d="M279.1,81.3c0,0,5.7-8.7-6.2-17.3c0,0-11.1,5.7-3.6,18.5c0,0,1-1.9,2.3-6.1c0,0,0.3,4.2,1.8,5.6
                                              c1.5,1.4,3.9,2.6,3.9,2.6L279.1,81.3z"></path>
                                        <path class="st0" d="M311.4,65c0,0-0.5-11.5-18.7-14.2c0,0-7,11.2,9.8,20.2c0,0-0.4-2.4-2.1-7.2c0,0,3.3,4.1,5.9,4.7
                                              c2.5,0.6,5.8,0.7,5.8,0.7L311.4,65z"></path>
                                        <path class="st0" d="M154,126.7c0,0,9.7-7.8,0.2-20.5c0,0-14.3,3.1-11.3,19c0,0,1.9-1.8,4.9-6c0,0-1.4,4.6-0.3,6.5
                                              c1.1,1.9,3.2,3.9,3.2,3.9L154,126.7z"></path>
                                        <path class="st0" d="M144.1,98.8c0,0,6.7-10.9-8.6-21.2c0,0-13.5,7.4-3.5,23c0,0,1.2-2.4,2.5-7.6c0,0,0.6,5.2,2.5,6.9
                                              c2,1.6,5,3.1,5,3.1L144.1,98.8z"></path>
                                        <path class="st0" d="M74.9,169.1c0,0,3.2-12.3-15.2-19.2c0,0-11.1,10.3,3.7,23.7c0,0,0.4-2.6,0.1-8.1c0,0,2.2,5,4.7,6.3
                                              c2.5,1.2,5.9,2,5.9,2L74.9,169.1z"></path>
                                        <path class="st0" d="M140.8,148.9c0,0,3.2-12.3-15.2-19.2c0,0-11.1,10.3,3.7,23.7c0,0,0.4-2.6,0.1-8.1c0,0,2.2,5,4.7,6.3
                                              c2.5,1.2,5.9,2,5.9,2L140.8,148.9z"></path>
                                        <path class="st0" d="M96.1,165.8c0,0,6-11.5-10.3-21.3c0,0-13.3,8.3-2,23.8c0,0,1-2.5,2-8c0,0,1,5.3,3.1,6.9s5.3,2.9,5.3,2.9
                                              L96.1,165.8z"></path>
                                        <path class="st0" d="M121.1,113.8c0,0,6-11.5-10.3-21.3c0,0-13.3,8.3-2,23.8c0,0,1-2.5,2-8c0,0,1,5.3,3.1,6.9
                                              c2.1,1.6,5.3,2.9,5.3,2.9L121.1,113.8z"></path>
                                        <path class="st0" d="M172.8,95c0,0,2.1-13.1-19.3-18.4c0,0-8.5,16.5,11.1,24c0,0-2.3-4.1-3.5-10.3C161,90.3,165.7,96.9,172.8,95
                                              z"></path>
                                        <path class="st0" d="M189.7,84c0,0,8.6-11.1-8.1-23.5c0,0-16.2,11.9-2.2,25.7c0,0,0-4.5,2.1-10.5
                                              C181.5,75.6,182.3,83.3,189.7,84z"></path>
                                        <path class="st0" d="M211.1,108.5c0,0,8.6-11.1-8.1-23.5c0,0-16.2,11.9-2.2,25.7c0,0,0-4.5,2.1-10.5
                                              C202.9,100.1,203.7,107.8,211.1,108.5z"></path>
                                        <path class="st0" d="M243.3,91.7c0,0,8.6-11.1-8.1-23.5c0,0-16.2,11.9-2.2,25.7c0,0,0-4.5,2.1-10.5
                                              C235.1,83.3,235.9,91,243.3,91.7z"></path>
                                        <path class="st0" d="M219.5,70.1c0,0,9.3-10.7-6.4-23.8c0,0-17,11.1-4,25.5c0,0,0.3-4.5,2.8-10.4
                                              C211.9,61.4,212.2,69.1,219.5,70.1z"></path>
                                        <path class="st0" d="M258.6,66.5c0,0,9.3-10.7-6.4-23.8c0,0-17,11.1-4,25.5c0,0,0.3-4.5,2.8-10.4
                                              C251,57.8,251.3,65.4,258.6,66.5z"></path>
                                        <g>
                                            <g>
                                                <path class="st0" d="M376.4,221.6c-1.8-4.9-4.7-9.5-7.6-13.7c-7.3-10.6-16.9-19.7-27.9-26.6c-16.6-10.5-35.9-15.8-55.3-17.2
                                                      c-21-1.5-42.4,1.1-61.3,10.8c-15.4,7.9-28.9,18.4-39.3,32.3c-9.1,12.1-15.8,26-20,40.5c-3.6,12.6-4.6,25-3.9,38
                                                      c0.9,15.5,3.9,31.1,10.4,45.3c6.6,14.3,17,26.4,30.3,34.9c17,11,37.4,15.8,57.4,17.5c6.3,0.5,12.5,0.8,18.8,0.8
                                                      c0.6,0,1.8-1,2.3-1.3c0.5-0.3,1.7-1.4,2.3-1.4c-21.6,0-43.9-2.6-63.8-11.6c-14.6-6.6-27.4-16.8-36.3-30.2
                                                      c-8.3-12.6-13-27.3-15.3-42.2c-2-13.2-2.8-26.9-0.5-40.1c2.3-13.6,7.1-26.9,13.8-39c7.8-14.2,18.5-26.9,31.8-36.3
                                                      c1-0.7,2-1.4,3-2c0.4-0.3,0.8-0.5,1.3-0.8c0.4-0.2,2.3-1.4,1.2-0.8c-1.1,0.7,0.6-0.3,0.9-0.4c0.5-0.2,0.9-0.5,1.4-0.7
                                                      c1.2-0.6,2.4-1.2,3.7-1.8c4.2-1.9,8.6-3.5,13.1-4.9c10-2.9,20.5-4.3,31-4.4c20.6-0.2,41.5,3.4,60,12.8
                                                      c12.4,6.3,23.5,15.1,32.2,25.9c4.5,5.5,8.5,11.7,11.3,18.3c0.1,0.3,0.3,0.6,0.4,0.9C371.7,224,376.5,221.9,376.4,221.6
                                                      L376.4,221.6z"></path>
                                            </g>
                                            <g>
                                                <path class="st0" d="M331.6,100.2c-8.6,2.1-17,6.8-24.2,11.9c-2.9,2.1-5.6,4.4-7.9,7.1c-2.5,2.9-4.2,6.3-6.1,9.6
                                                      c-4.3,7.5-9.5,14.7-15.3,21.1c-3.1,3.4-6.3,6.6-9.9,9.5c-0.9,0.7-1.7,1.3-2.6,2c-0.5,0.4-1.1,0.7-1.6,1.1
                                                      c-1.8,1.3,3.2-1.7,1.2-0.7c-1.7,0.8-3.4,1.5-5.3,1.9c-1.7,0.4-3,2.3-4.6,2.7c2.8-0.7,5.4-1.9,7.9-3.4c3-1.7,5.9-3.4,8.7-5.5
                                                      c6.5-5,12.1-11.3,17-17.8c2.6-3.5,5.1-7.1,7.4-10.8c2.1-3.3,3.7-7,6-10.2c2.1-2.9,4.7-5.5,7.5-7.7c1.4-1.1,2.8-2.1,4.3-3.1
                                                      c0.4-0.2,0.7-0.4,1.1-0.7c-2.7,1.8-1.9,1.1-1.2,0.7c0.9-0.4,1.7-0.9,2.6-1.3c3.3-1.5,6.7-2.9,10.2-3.8
                                                      C328.7,102.4,330,100.6,331.6,100.2L331.6,100.2z"></path>
                                            </g>
                                            <g>
                                                <path class="st0" d="M412.2,105.1c-16.1,8-32.2,15.9-48.4,23.8c-25.6,12.6-52.6,21.5-80.2,28.7c-6.6,1.7-13.2,3.4-19.9,4.8
                                                      c-1.7,0.4-3,2.3-4.6,2.7c17.9-3.9,35.7-8.8,53.1-14.5c13.8-4.5,27.4-9.5,40.4-15.8c13.4-6.5,26.7-13.1,40.1-19.7
                                                      c5-2.5,10-4.9,15-7.4C409.1,107,411,105.7,412.2,105.1L412.2,105.1z"></path>
                                            </g>
                                            <g>
                                                <path class="st0" d="M449.7,131.9c-6.1,1.2-12.3,1.9-18.4,2.4c-12.2,1-24.7,1.2-36.7-1.1c-6.4-1.2-12.7-3.3-18.2-6.9
                                                      c-0.7-0.5-4,3.1-4.6,2.7c10,6.7,22.9,8.3,34.7,8.7c10.7,0.4,21.5-0.4,32.1-2c2.2-0.3,4.3-0.6,6.4-1.1
                                                      C446.7,134.3,448.1,132.3,449.7,131.9L449.7,131.9z"></path>
                                            </g>
                                            <g>
                                                <path class="st0" d="M462.7,153.1c-7.2,1.9-14.7,2.6-22.1,3.1c-16.3,1-32.5-0.6-48.4-4.3c-13.6-3.2-27.1-7-40.6-10.4
                                                      c-12.8-3.1-25.9-6.2-39.1-6.8c-5.5-0.3-11.2-0.2-16.5,1.4c-2.4,0.7-4.5,1.9-6.6,3.1c-2,1.2-4,2.3-5.7,4
                                                      c1.2-1.2,3.4-1.4,4.6-2.7c0.6-0.6,1.3-1.2,2-1.7c2.3-1.7-2.9,1.5-2.4,1.3c0.6-0.2,1.1-0.5,1.7-0.8c1.9-0.8,4-1.2,6-1.6
                                                      c5-0.8,10.1-0.7,15.1-0.3c12.7,1,25.2,3.9,37.5,7c12.9,3.2,25.7,6.8,38.6,9.8c15.1,3.6,30.5,5.4,46.1,4.7
                                                      c8.4-0.4,17-1.1,25.2-3.3C459.8,155.3,461.1,153.5,462.7,153.1L462.7,153.1z"></path>
                                            </g>
                                            <g>
                                                <path class="st0" d="M473.3,189.8c-13.6,5.4-29.1,8.6-43.7,8c-10.3-0.4-21-3.2-28.4-10.8c-4.9-5-9-11-13.3-16.5
                                                      c-3.9-4.9-7.8-9.8-12.2-14.2c-4.3-4.3-9.1-8.2-14.5-11.1c-6.2-3.3-13-5.1-19.9-6.2c-0.5-0.1-1.9,1.1-2.3,1.3
                                                      c-0.4,0.2-1.8,1.4-2.3,1.4c11.8,1.9,22.5,6.3,31.3,14.4c9.7,8.9,17.3,20,25.6,30.2c6.9,8.6,16.6,12.8,27.4,13.9
                                                      c10.2,1,20.7-0.3,30.6-2.6c5.7-1.3,11.5-2.9,17-5.1C470.3,191.8,471.7,190.5,473.3,189.8L473.3,189.8z"></path>
                                            </g>
                                            <g>
                                                <path class="st0" d="M481.6,214.7c-0.7-0.9-2.3-1.5-3.2-2c-5.7-3-11.8-5.2-17.9-7.4c-7.1-2.6-14.2-5-21.4-7.4
                                                      c-0.4-0.1-2,1.1-2.3,1.3c-0.3,0.2-1.9,1.5-2.3,1.4c10.6,3.5,21.3,7.1,31.7,11.3c3.4,1.4,7,2.7,10,4.9c0.2,0.2,0.6,0.4,0.8,0.6
                                                      C477.1,217.6,481.5,214.6,481.6,214.7L481.6,214.7z"></path>
                                            </g>
                                            <g>
                                                <path class="st0" d="M428.5,229.4c-4.4-1.3-8.7-3-12.9-4.9c-7.5-3.3-15.2-7.2-21-13.1c-4.4-4.4-7.3-10.3-11.1-15.2
                                                      c-4.3-5.6-9.3-10.6-15.6-13.9c-9.3-4.9-19.9-5-30-2.8c-1.7,0.4-3,2.3-4.6,2.7c9.1-2,18.7-2.2,27.4,1.5
                                                      c6.7,2.9,12.2,7.7,16.7,13.3c3.9,4.8,6.9,10.3,10.8,15.1c5.1,6.3,12.8,10.4,20,13.7c5.1,2.4,10.3,4.5,15.7,6.2
                                                      c0.4,0.1,2-1.1,2.3-1.3C426.6,230.5,428.2,229.2,428.5,229.4L428.5,229.4z"></path>
                                            </g>
                                            <g>
                                                <path class="st0" d="M331.6,79.7c-11.6,0-23.7,2.2-34.6,6.2c-8,2.9-16.2,7.2-22.7,12.8c-7,5.9-12.1,14-17.6,21.2
                                                      c-2.5,3.2-5,6.4-7.9,9.3c-1.4,1.4-2.9,2.7-4.4,3.9c-0.9,0.7-1.7,1.3-2.6,1.9c-1.7,1.2,1.8-0.9,1.1-0.6
                                                      c-0.7,0.2-1.3,0.6-1.9,0.9c-4.4,2-9.1,3-13.9,3.5c-5.8,0.6-11.6,0.1-17.4,0.6c-9.4,0.9-17.4,4.3-25.4,9.2
                                                      c-5.9,3.6-10.9,8.7-13.8,15c-2.6,5.6-2.8,10.8-1.2,16.8c2.9,11.2,7.1,22,6.8,33.7c-0.1,3.3-0.5,6.5-1.3,9.7
                                                      c0.1-0.3,2-1.1,2.3-1.3c0.4-0.2,2.2-0.9,2.3-1.4c2.9-11.9,0.3-23.8-3.1-35.3c-1.9-6.5-4.6-13.2-2.9-20
                                                      c1.5-5.9,5-11.2,9.4-15.3c1.2-1.1,2.5-2.2,3.9-3.2c0.5-0.3,1-0.7,1.5-1c1.7-1.2-3,1.5-1,0.6c1.3-0.5,2.5-1.2,3.7-1.7
                                                      c4.4-1.7,9.1-2.8,13.8-3.2c5.6-0.6,11.2,0,16.8-0.5c4.6-0.4,9.2-1.3,13.5-3c6.9-2.7,13.6-7.1,18.9-12.4
                                                      c5.7-5.9,10.3-12.8,15.3-19.2c2.8-3.6,5.6-7.2,9-10.2c1.6-1.4,3.3-2.8,5.1-3.9c0.4-0.3,1.1-0.5,1.4-0.9
                                                      c-0.4,0.2-0.8,0.4-1.1,0.7c0.3-0.2,0.6-0.3,1-0.5c1.3-0.7,2.6-1.3,3.9-1.8c11.9-5.1,25.7-7.8,38.7-7.8c0.6,0,1.8-1,2.3-1.3
                                                      C329.9,80.7,331,79.7,331.6,79.7L331.6,79.7z"></path>
                                            </g>
                                            <g>
                                                <path class="st0" d="M175.1,381.6c-6.1-14-10.3-29-13.8-43.9c-7.6-32.1-10.8-65.7-6.5-98.5c2.8-21.3,9.1-42.2,19.2-61.2
                                                      c-0.2,0.5-1.9,1-2.3,1.3c-0.5,0.3-2,0.8-2.3,1.4c-17.6,33.1-23,71.1-20.6,108.1c1.8,27.3,7.4,54.5,16.1,80.4
                                                      c1.7,5,3.5,10.1,5.6,14.9C170.4,384.1,175.2,381.8,175.1,381.6L175.1,381.6z"></path>
                                            </g>
                                            <g>
                                                <path class="st0" d="M116.2,184c1.5,15.5,2.3,31.1,2.8,46.6c1,32.8,0.5,65.9-3.4,98.6c-2.2,18.6-5.5,37.2-11.3,55
                                                      c0.1-0.4,2-1.1,2.3-1.3c0.4-0.2,2.1-0.9,2.3-1.4c10.4-32.3,13.5-66.8,14.7-100.5c1-27.8,0.4-55.7-1.4-83.5
                                                      c-0.4-5.4-0.7-10.8-1.3-16.2C120.9,182,116.1,183.3,116.2,184L116.2,184z"></path>
                                            </g>
                                            <g>
                                                <path class="st0" d="M124,234.2c-0.5-3.2-1.7-6.4-3-9.4c-3.2-7.4-8.1-14-14-19.5c-4.6-4.3-9.9-7.8-15.5-10.6
                                                      c-0.3-0.1-2,1.2-2.3,1.3c-0.3,0.2-2.1,1.5-2.3,1.4c14.7,7.4,27,20.1,31.7,36.1c0.3,1.1,0.6,2.2,0.8,3.3
                                                      C119.3,236.3,124.1,234.9,124,234.2L124,234.2z"></path>
                                            </g>
                                            <g>
                                                <path class="st0" d="M186.1,102.8c-3,5.1-5.6,10.4-7.9,15.8c-4.9,11.2-8.8,23-10.4,35.1c-1,7.2-1,14.6,0.4,21.8
                                                      c-0.1-0.5,4.8-2.1,4.6-2.7c-2.5-12.8-0.4-26.1,3.2-38.5c2.9-9.9,6.9-19.6,11.7-28.8c0.9-1.8,1.9-3.7,3-5.4
                                                      c-0.3,0.5-1.8,1-2.3,1.3C187.9,101.8,186.5,102.3,186.1,102.8L186.1,102.8z"></path>
                                            </g>
                                            <g>
                                                <path class="st0" d="M145.9,137.7c-6.9,28.1-11.7,57.3-11.3,86.3c0.2,15.3-0.4,30.6-0.8,45.9c-0.5,19.1-1.1,38.2-1.2,57.3
                                                      c-0.1,19-0.1,38.2,2,57.1c-0.1-0.7,4.7-1.9,4.6-2.7c-1.9-16.7-2-33.6-2-50.4c0-19.2,0.5-38.3,1-57.5c0.4-16,1-32.1,1-48.1
                                                      c0-7.8-0.2-15.6,0.4-23.4c0.7-9.7,1.9-19.4,3.4-29.1c2-12.7,4.4-25.5,7.5-38c-0.1,0.3-2,1.1-2.3,1.3
                                                      C147.8,136.6,146,137.3,145.9,137.7L145.9,137.7z"></path>
                                            </g>
                                            <g>
                                                <path class="st0" d="M104.3,125.4c-1.1,6.1-1.7,12.4-2,18.6c-0.5,11.7,0.1,23.9,3.9,35.1c2.2,6.2,5.5,12,10.5,16.2
                                                      c0.5,0.4,4.2-3,4.6-2.7c-9.2-7.7-12.6-20.2-13.9-31.7c-1.2-10.4-0.8-21,0.4-31.5c0.3-2.2,0.6-4.5,1-6.7
                                                      c-0.1,0.3-2,1.1-2.3,1.3C106.2,124.3,104.4,125,104.3,125.4L104.3,125.4z"></path>
                                            </g>
                                            <g>
                                                <path class="st0" d="M240,102.8c-0.2,3.3-1.2,6.6-2.4,9.6c-2.8,7.4-7.5,13.9-13.6,18.9c-1.1,0.9-2.2,1.8-3.3,2.6
                                                      c-0.7,0.5-1.4,1-2.2,1.4c-0.8,0.5-1,0.1,0.9-0.5c-0.4,0.1-0.8,0.4-1.2,0.6c-3.4,1.7-6.9,3-10.5,4.1c-1.7,0.5-3,2.2-4.6,2.7
                                                      c18.4-5.6,36.2-18.4,40.8-37.9c0.3-1.4,0.6-2.8,0.7-4.2c0,0.2-2.1,1.2-2.3,1.3C242,101.6,240,102.5,240,102.8L240,102.8z"></path>
                                            </g>
                                            <g>
                                                <path class="st0" d="M115.5,356.5c0.5-5.6,0.4-11.3,0.1-17c-0.6-10.5-2-21.6-6.6-31.2c-2.4-5.1-5.8-9.7-10.6-12.7
                                                      c-0.2-0.1-2.1,1.2-2.3,1.3c-0.2,0.1-2.1,1.5-2.3,1.4c8.9,5.6,12.8,16.4,14.9,26.1c2,9.4,2.6,19.1,2.4,28.7
                                                      c0,2-0.1,4.1-0.3,6.1c0-0.2,2.1-1.2,2.3-1.3C113.5,357.7,115.5,356.8,115.5,356.5L115.5,356.5z"></path>
                                            </g>
                                        </g>
                                    </g>
                                </g>
                            </g>
                        </g>
                    </svg>