<?xml version="1.0" encoding="utf-8"?>
<!-- Generator: Adobe Illustrator 23.0.2, SVG Export Plug-In . SVG Version: 6.00 Build 0)  -->
<svg version="1.1" id="Capa_1" xmlns="http://www.w3.org/2000/svg" xmlns:xlink="http://www.w3.org/1999/xlink" x="0px" y="0px"
	 viewBox="0 0 14.2 14.2" style="enable-background:new 0 0 14.2 14.2;" xml:space="preserve">
<g>
	<path d="M5,6.5h4.2c0.2,0,0.3-0.1,0.4-0.3c0.1-0.2,0.1-0.4,0-0.5L7.7,2.9C7.5,2.7,7.3,2.6,7.1,2.6c-0.2,0-0.4,0.1-0.6,0.3L4.6,5.7
		c-0.1,0.2-0.1,0.4,0,0.5C4.7,6.4,4.8,6.5,5,6.5z"/>
	<path d="M9.2,7.7H5C4.8,7.7,4.7,7.8,4.6,8c-0.1,0.2-0.1,0.4,0,0.5l1.9,2.8c0.1,0.2,0.3,0.3,0.6,0.3c0.2,0,0.4-0.1,0.6-0.3l1.9-2.8
		c0.1-0.2,0.1-0.4,0-0.5C9.5,7.8,9.4,7.7,9.2,7.7z"/>
</g>
</svg>
