<?xml version="1.0" encoding="utf-8"?>
<!-- Generator: Adobe Illustrator 23.0.2, SVG Export Plug-In . SVG Version: 6.00 Build 0)  -->
<svg version="1.1" id="Capa_1" xmlns="http://www.w3.org/2000/svg" xmlns:xlink="http://www.w3.org/1999/xlink" x="0px" y="0px"
	 viewBox="0 0 14.2 14.2" style="enable-background:new 0 0 14.2 14.2;" xml:space="preserve">
<style type="text/css">
	.st0{fill:#FFFFFF;}
</style>
<g>
	<path d="M4.4,3v5.8C4.1,8.9,3.9,9.1,3.9,9.4c0,0.3,0.3,0.6,0.6,0.6C4.8,10,5,9.8,5.1,9.6c0.4-0.7,3.6,0.1,4.3,1.5
		c0.1,0.2,0.3,0.3,0.6,0.3c0.4,0,0.6-0.3,0.6-0.6l0-8.2H7.1H4.4"/>
	<rect x="5.1" y="8.3" class="st0" width="4.9" height="0.3"/>
	<g>
		<rect x="9.5" y="3.4" class="st0" width="0.6" height="4.4"/>
	</g>
	<g>
		<rect x="8" y="3.4" class="st0" width="0.6" height="4.4"/>
	</g>
	<g>
		<rect x="5.1" y="3.4" class="st0" width="0.6" height="4.4"/>
	</g>
	<g>
		<rect x="6.6" y="3.4" class="st0" width="0.6" height="4.4"/>
	</g>
	<path d="M4.4,2.7h-1C3.1,2.7,2.7,3,2.7,3.4s0.3,0.7,0.7,0.7s0.7-0.3,0.7-0.7H3.9c0,0.2-0.2,0.4-0.4,0.4c-0.2,0-0.4-0.2-0.4-0.4
		C3.1,3.2,3.2,3,3.5,3h1"/>
</g>
</svg>
