<?xml version="1.0" encoding="utf-8"?>
<!-- Generator: Adobe Illustrator 23.0.2, SVG Export Plug-In . SVG Version: 6.00 Build 0)  -->
<svg version="1.1" id="Capa_1" xmlns="http://www.w3.org/2000/svg" xmlns:xlink="http://www.w3.org/1999/xlink" x="0px" y="0px"
	 viewBox="0 0 14.2 14.2" style="enable-background:new 0 0 14.2 14.2;" xml:space="preserve">
<g>
	<path d="M11.8,10.9c-3,0-6,0-9,0c0,0.1,0,0.3-0.1,0.4c-0.1,0.1-0.3,0.3-0.4,0.3c-0.1,0-0.3-0.2-0.3-0.4c0-1.4,0-2.7,0-4.1
		c0-0.4,0.3-0.5,0.7-0.3C2.8,7,3.1,7.1,3.3,7.1c2.7,0,5.4,0,8.1,0c0.2,0,0.4-0.1,0.6-0.2c0.3-0.2,0.6-0.1,0.7,0.3c0,1.4,0,2.7,0,4.1
		c0,0.1-0.2,0.4-0.3,0.4c-0.1,0-0.3-0.2-0.4-0.3C11.8,11.2,11.8,11.1,11.8,10.9z"/>
	<path d="M11.8,6.4c-0.3,0-0.5,0-0.7,0c0-0.1-0.1-0.1-0.1-0.1c-0.1-1-0.1-1-1-1c-0.5,0-1.1,0-1.6,0C7.9,5.2,7.6,5.4,7.7,6
		c0,0.1,0,0.2,0,0.3c-0.2,0-0.5,0-0.7,0c0-0.1,0-0.3,0-0.4C7,5.4,6.7,5.2,6.2,5.3c-0.5,0-1,0-1.6,0c-1.1,0-1.1,0-1.1,1.1
		c-0.2,0-0.4,0-0.7,0c0-0.9,0-1.8,0-2.7C2.8,3.3,3.1,3,3.5,3C6,3,8.5,3,11,3c0.5,0,0.8,0.3,0.8,0.8C11.8,4.6,11.8,5.5,11.8,6.4z"/>
</g>
</svg>
