<?xml version="1.0" encoding="utf-8"?>
<!-- Generator: Adobe Illustrator 23.0.2, SVG Export Plug-In . SVG Version: 6.00 Build 0)  -->
<svg version="1.1" id="Capa_1" xmlns="http://www.w3.org/2000/svg" xmlns:xlink="http://www.w3.org/1999/xlink" x="0px" y="0px"
	 viewBox="0 0 14.2 14.2" style="enable-background:new 0 0 14.2 14.2;" xml:space="preserve">
<g transform="translate(0 -0.001)">
	<path d="M4.1,10.6l1.8-1.8L5.3,8.1L3.4,9.9c-0.2,0.2-0.2,0.5,0,0.7C3.6,10.7,3.9,10.7,4.1,10.6z"/>
	<path d="M5.6,7.7l0.7,0.7c0.5,0.5,1.2,0.5,1.7,0l0.2-0.2L5.8,5.9L5.6,6.1C5.1,6.5,5.1,7.3,5.6,7.7z"/>
	<path d="M9.6,6.6c-0.1,0.1-0.3,0-0.3-0.1c-0.1-0.1,0-0.3,0.1-0.3c0,0,0,0,0,0C9.9,6,10.4,5.9,11,5.8c-0.2-0.5-0.5-1.1-0.9-1.5
		L8.9,5.4c-0.1,0.1-0.2,0.1-0.3,0c-0.1-0.1-0.1-0.2,0-0.3l1.2-1.2C9.3,3.5,8.8,3.2,8.2,3C8.1,3.5,8,4.1,7.8,4.6
		c0,0.1-0.2,0.2-0.3,0.1c-0.1,0-0.2-0.2-0.1-0.3c0,0,0,0,0,0c0.2-0.5,0.3-1,0.4-1.6C7.3,2.7,6.9,2.7,6.4,2.7c-0.1,0-0.2,0.1-0.2,0.2
		c0,0,0,0.1,0,0.1c0,0,0.5,1.6-0.1,2.6l2.4,2.4C9.4,7.2,11,7.8,11,7.8c0.1,0,0.3,0,0.3-0.1c0,0,0,0,0-0.1c0-0.5-0.1-0.9-0.2-1.3
		C10.6,6.3,10.1,6.5,9.6,6.6L9.6,6.6z"/>
</g>
</svg>
