<?xml version="1.0" encoding="utf-8"?>
<!-- Generator: Adobe Illustrator 23.0.2, SVG Export Plug-In . SVG Version: 6.00 Build 0)  -->
<svg version="1.1" id="Capa_1" xmlns="http://www.w3.org/2000/svg" xmlns:xlink="http://www.w3.org/1999/xlink" x="0px" y="0px"
	 viewBox="0 0 14.2 14.2" style="enable-background:new 0 0 14.2 14.2;" xml:space="preserve">
<g>
	<path d="M9.7,6.5C9.7,6.5,9.7,6.5,9.7,6.5L7.5,4.4l0.3-0.3c0.1-0.1,0.1-0.2,0-0.3L7.1,3.1C7,3,7,3,6.9,3C6.9,3,6.8,3,6.8,3.1
		L6.5,3.4c-0.2-0.1-0.4-0.1-0.6,0c-0.2,0.2-0.2,0.4,0,0.6L5.9,4C5.6,3.9,5.4,3.9,5.1,3.9C4.6,3.9,4,4.1,3.7,4.5c0,0-0.1,0.1-0.1,0.2
		c0,0.1,0,0.1,0.1,0.1l2.6,2.5c0,0,0.1,0.1,0.1,0.1h0c0.1,0,0.1,0,0.1-0.1C6.8,6.9,7,6.5,7.1,6.1c0-0.4,0-0.7-0.2-1.1L7,5l2,2
		C8.9,7.1,8.9,7.2,8.9,7.3c0,0.2,0,0.3,0.1,0.4l-2.4,2.5H5.8c0-0.2-0.2-0.3-0.3-0.3h0c-0.2,0-0.3,0.1-0.3,0.3H5
		c-0.3,0-0.5,0.2-0.5,0.5s0.2,0.5,0.5,0.5h2.8c0.3,0,0.5-0.2,0.5-0.5s-0.2-0.5-0.5-0.5H7.7l2-2c0,0,0,0,0,0c0.5,0,0.9-0.4,0.9-0.9
		S10.2,6.5,9.7,6.5z M9.7,7.7c-0.2,0-0.4-0.2-0.4-0.4C9.4,7.1,9.5,7,9.7,7c0.2,0,0.4,0.2,0.4,0.4C10.1,7.5,9.9,7.7,9.7,7.7z"/>
</g>
</svg>
