<?xml version="1.0" encoding="utf-8"?>
<!-- Generator: Adobe Illustrator 23.0.2, SVG Export Plug-In . SVG Version: 6.00 Build 0)  -->
<svg version="1.1" id="Capa_1" xmlns="http://www.w3.org/2000/svg" xmlns:xlink="http://www.w3.org/1999/xlink" x="0px" y="0px"
	 viewBox="0 0 14.2 14.2" style="enable-background:new 0 0 14.2 14.2;" xml:space="preserve">
<g transform="translate(0 0)">
	<path d="M10.8,10.3L9.1,8.6L8.5,9.1l1.7,1.7H8.9v0.8h2.7V8.9h-0.8V10.3z"/>
	<path d="M9.1,6.1l1.7-1.7v1.3h0.8V3H8.9v0.8h1.3L8.5,5.5L9.1,6.1z"/>
	<path d="M5.5,8.6l-1.7,1.7V8.9H3v2.7h2.7v-0.8H4.3l1.7-1.7L5.5,8.6z"/>
	<path d="M5.7,3.8V3H3v2.7h0.8V4.4l1.7,1.7l0.6-0.6L4.3,3.8L5.7,3.8z"/>
</g>
</svg>
