<?xml version="1.0" encoding="utf-8"?>
<!-- Generator: Adobe Illustrator 23.0.2, SVG Export Plug-In . SVG Version: 6.00 Build 0)  -->
<svg version="1.1" id="Capa_1" xmlns="http://www.w3.org/2000/svg" xmlns:xlink="http://www.w3.org/1999/xlink" x="0px" y="0px"
	 viewBox="0 0 14.2 14.2" style="enable-background:new 0 0 14.2 14.2;" xml:space="preserve">
<g>
	<circle cx="4.8" cy="4.2" r="0.9"/>
	<path d="M6.7,6.9C6.6,6.8,6.5,6.7,6.3,6.5L5.7,5.9C5.6,5.8,5.5,5.7,5.4,5.6C5.3,5.6,5.1,5.5,5,5.5h0c-0.6,0-1,0.5-1,1v0.3H2.6v3.6
		c0,0.5,0.4,0.9,0.9,0.9h7.2c0.5,0,0.9-0.4,0.9-0.9V6.9H6.7z M4.8,10.5H3.9V7.8h0.9V10.5z M6.6,10.5H5.7V7.8h0.9V10.5z M8.5,10.5
		H7.6V7.8h0.9V10.5z M10.3,10.5H9.4V7.8h0.9V10.5z M10.1,4.1L10.1,4.1c-0.3-0.3-0.4-0.7-0.3-1l0-0.3H9l0,0.2C8.8,3.6,9,4.2,9.5,4.7
		l0,0c0.3,0.3,0.4,0.6,0.3,1l0,0.3h0.9l0-0.2C10.8,5.2,10.6,4.6,10.1,4.1z M8.3,4.1L8.3,4.1C8,3.8,7.9,3.4,8,3.1l0-0.3H7.1l0,0.2
		C7,3.6,7.2,4.2,7.7,4.7l0,0C8,5,8.1,5.3,8,5.7L8,6h0.9l0-0.2C9,5.2,8.8,4.6,8.3,4.1z"/>
</g>
</svg>
