<?xml version="1.0" encoding="utf-8"?>
<!-- Generator: Adobe Illustrator 23.0.2, SVG Export Plug-In . SVG Version: 6.00 Build 0)  -->
<svg version="1.1" id="Capa_1" xmlns="http://www.w3.org/2000/svg" xmlns:xlink="http://www.w3.org/1999/xlink" x="0px" y="0px"
	 viewBox="0 0 14.2 14.2" style="enable-background:new 0 0 14.2 14.2;" xml:space="preserve">
<style type="text/css">
	.st0{fill:none;}
</style>
<g id="Layer_x0020_1">
	<polygon points="11.7,7 7.1,3.8 2.4,7 2.2,6.7 6.9,3.4 7.1,3.3 7.2,3.4 11.9,6.7 	"/>
	<polygon points="10.8,10.7 8,10.7 7.8,10.7 7.8,10.5 7.8,8.5 6.3,8.5 6.3,10.5 6.3,10.7 6.1,10.7 3.3,10.7 3.1,10.7 3.1,10.5 
		3.1,7 3.1,6.9 3.2,6.8 6.9,4.3 7.1,4.2 7.2,4.3 10.9,6.8 11,6.9 11,7 11,10.5 11,10.7 	"/>
	<rect x="2.3" y="1.8" class="st0" width="9.4" height="9.4"/>
	<rect x="0.8" y="0.3" class="st0" width="12.6" height="12.6"/>
</g>
</svg>
