<?xml version="1.0" encoding="utf-8"?>
<!-- Generator: Adobe Illustrator 23.0.2, SVG Export Plug-In . SVG Version: 6.00 Build 0)  -->
<svg version="1.1" id="Capa_1" xmlns="http://www.w3.org/2000/svg" xmlns:xlink="http://www.w3.org/1999/xlink" x="0px" y="0px"
	 viewBox="0 0 14.2 14.2" style="enable-background:new 0 0 14.2 14.2;" xml:space="preserve">
<path d="M11.6,3.6l-0.7-1c-0.1-0.1-0.2-0.2-0.3-0.2s-0.2,0.1-0.3,0.2l-0.7,1c0,0.1-0.1,0.1-0.1,0.2v0.9H8.2V3.8c0-0.1,0-0.1-0.1-0.2
	l-0.7-1C7.3,2.5,7.2,2.4,7.1,2.4C7,2.4,6.9,2.5,6.8,2.6l-0.7,1C6,3.7,6,3.7,6,3.8v0.9H4.7V3.8c0-0.1,0-0.1-0.1-0.2l-0.7-1
	C3.9,2.5,3.8,2.4,3.6,2.4c-0.1,0-0.2,0.1-0.3,0.2l-0.7,1c0,0.1-0.1,0.1-0.1,0.2v6.7c0,0.2,0.2,0.4,0.4,0.4h1.4
	c0.2,0,0.4-0.2,0.4-0.4V9.7H6v0.7c0,0.2,0.2,0.4,0.4,0.4h1.4c0.2,0,0.4-0.2,0.4-0.4V9.7h1.3v0.7c0,0.2,0.2,0.4,0.4,0.4h1.4
	c0.2,0,0.4-0.2,0.4-0.4V3.8C11.7,3.7,11.6,3.7,11.6,3.6z M6,8.5H4.7V6H6V8.5L6,8.5z M8.2,6h1.3v2.5H8.2V6z"/>
</svg>
