<?xml version="1.0" encoding="utf-8"?>
<!-- Generator: Adobe Illustrator 23.0.2, SVG Export Plug-In . SVG Version: 6.00 Build 0)  -->
<svg version="1.1" id="Capa_1" xmlns="http://www.w3.org/2000/svg" xmlns:xlink="http://www.w3.org/1999/xlink" x="0px" y="0px"
	 viewBox="0 0 14.2 14.2" style="enable-background:new 0 0 14.2 14.2;" xml:space="preserve">
<g transform="translate(-0.499 0.001)">
	<path d="M8.2,6.6V4.4c0.1,0,0.2,0,0.4,0C9.4,4.4,10,3.8,10,3c0,0,0-0.1,0-0.1c0-0.1-0.1-0.2-0.1-0.2c-0.7-0.4-1.5-0.2-2,0.4
		C7.8,3.4,7.7,3.7,7.7,4c0,0,0,0,0,0v1C7,4.1,5.8,3.9,4.8,4.4c-0.1,0-0.1,0.1-0.1,0.2C4.4,5.9,5.3,7.1,6.6,7.4c0.1,0,0.2,0,0.2,0
		c0.1,0,0.1,0,0.2,0c0.2,0,0.5,0,0.7-0.1v0.5h0.5L8.2,6.6L8.2,6.6z"/>
	<path d="M6.4,8.3c-0.1,0-0.3,0.1-0.3,0.3c0,0,0,0,0,0l0.5,2.8c0,0.1,0.1,0.2,0.3,0.2H9c0.1,0,0.2-0.1,0.3-0.2l0.5-2.8
		c0-0.1-0.1-0.3-0.2-0.3c0,0,0,0,0,0H6.4z"/>
</g>
</svg>
