<?xml version="1.0" encoding="utf-8"?>
<!-- Generator: Adobe Illustrator 23.0.2, SVG Export Plug-In . SVG Version: 6.00 Build 0)  -->
<svg version="1.1" id="Capa_1" xmlns="http://www.w3.org/2000/svg" xmlns:xlink="http://www.w3.org/1999/xlink" x="0px" y="0px"
	 viewBox="0 0 14.2 14.2" style="enable-background:new 0 0 14.2 14.2;" xml:space="preserve">
<g transform="translate(0 -5.707)">
	<g transform="translate(0 5.707)">
		<path d="M12.1,5.7c0-0.1-0.1-0.1-0.2-0.1h-1C10.8,5,10.5,4.5,10,4.1c-1.3-0.8-4.6-0.8-5.8,0C3.7,4.5,3.4,5,3.3,5.6h-1
			C2.1,5.6,2,5.7,2,5.9c0,0,0,0,0,0.1l0.1,0.7c0,0.1,0.1,0.2,0.3,0.2h0.3C2.4,7.2,2.3,7.6,2.3,8c0,0.5,0.2,1,0.5,1.3l0,0v1
			c0,0.2,0.2,0.4,0.4,0.4h0.9c0.2,0,0.4-0.2,0.4-0.4V9.9h5.1v0.4c0,0.2,0.2,0.4,0.4,0.4H11c0.2,0,0.4-0.2,0.4-0.4v-1
			c0.7-0.7,0.7-1.8,0.1-2.5h0.3c0.1,0,0.2-0.1,0.3-0.2l0.1-0.7C12.2,5.9,12.2,5.8,12.1,5.7z M4.6,4.8c1-0.7,4-0.7,5,0
			c0.3,0.4,0.5,0.8,0.7,1.3H3.9C4.1,5.6,4.3,5.1,4.6,4.8z M3.4,8.1c0-0.4,0.3-0.8,0.8-0.8C4.6,7.3,5,7.7,5,8.1
			c0,0.4-0.3,0.8-0.8,0.8S3.4,8.5,3.4,8.1L3.4,8.1z M10,8.9c-0.4,0-0.8-0.3-0.8-0.8c0-0.4,0.3-0.8,0.8-0.8c0.4,0,0.8,0.3,0.8,0.8
			C10.8,8.5,10.4,8.9,10,8.9z"/>
	</g>
</g>
</svg>
