<?xml version="1.0" encoding="utf-8"?>
<!-- Generator: Adobe Illustrator 23.0.2, SVG Export Plug-In . SVG Version: 6.00 Build 0)  -->
<svg version="1.1" id="Capa_1" xmlns="http://www.w3.org/2000/svg" xmlns:xlink="http://www.w3.org/1999/xlink" x="0px" y="0px"
	 viewBox="0 0 14.2 14.2" style="enable-background:new 0 0 14.2 14.2;" xml:space="preserve">
<g>
	<g>
		<g>
			<path d="M10.7,4l-0.2-0.2c-0.2-0.2-0.4-0.2-0.6-0.1C9,3,7.8,2.9,6.8,3.6c-0.5-0.3-1-0.5-1.5-0.5C3.7,3.1,2.4,4.4,2.4,6v4.4
				c0,0.1,0.1,0.2,0.2,0.2h0.8c0.1,0,0.2-0.1,0.2-0.2V6c0-0.9,0.7-1.6,1.6-1.6c0.3,0,0.5,0.1,0.7,0.2c-0.4,0.9-0.3,2,0.4,2.7
				c0,0.1-0.1,0.2-0.1,0.2c0,0.1,0.1,0.3,0.2,0.4L6.6,8c0,0,0.1,0.1,0.1,0.1s0.1,0,0.1-0.1l3.7-3.7C10.8,4.2,10.8,4.1,10.7,4z"/>
			<path d="M8.7,7.4c0-0.1-0.2-0.2-0.3-0.1c-0.1,0-0.2,0.2-0.1,0.3l0.4,1.2c0,0.1,0.1,0.1,0.2,0.1c0,0,0,0,0.1,0
				c0.1,0,0.2-0.2,0.1-0.3L8.7,7.4z"/>
			<path d="M10.1,7.7c0.1,0,0.1,0,0.1-0.1c0.1-0.1,0.1-0.2,0-0.3L9.4,6.5c-0.1-0.1-0.2-0.1-0.3,0s-0.1,0.2,0,0.3L10,7.6
				C10,7.6,10.1,7.7,10.1,7.7z"/>
			<path d="M9.9,5.7c0,0.1,0,0.2,0.1,0.3l1.2,0.4c0,0,0,0,0.1,0c0.1,0,0.2-0.1,0.2-0.1c0-0.1,0-0.2-0.1-0.3l-1.2-0.4
				C10.1,5.6,10,5.6,9.9,5.7z"/>
			<path d="M9.9,8.2C9.8,8.1,9.7,8.1,9.6,8.1C9.5,8.2,9.5,8.3,9.5,8.4l0.8,1.2c0,0.1,0.1,0.1,0.2,0.1c0,0,0.1,0,0.1,0
				c0.1-0.1,0.1-0.2,0.1-0.3L9.9,8.2z"/>
			<path d="M12.3,7.7l-1.2-0.8c-0.1-0.1-0.2,0-0.3,0.1c-0.1,0.1,0,0.2,0.1,0.3L12.1,8c0,0,0.1,0,0.1,0c0.1,0,0.1,0,0.2-0.1
				C12.4,7.9,12.4,7.8,12.3,7.7z"/>
		</g>
	</g>
</g>
</svg>
