<?xml version="1.0" encoding="utf-8"?>
<!-- Generator: Adobe Illustrator 23.0.2, SVG Export Plug-In . SVG Version: 6.00 Build 0)  -->
<svg version="1.1" id="Capa_1" xmlns="http://www.w3.org/2000/svg" xmlns:xlink="http://www.w3.org/1999/xlink" x="0px" y="0px"
	 viewBox="0 0 14.2 14.2" style="enable-background:new 0 0 14.2 14.2;" xml:space="preserve">
<path d="M12.2,9.1L7.9,5.4v0.1c0.3-0.1,0.5-0.2,0.7-0.5C8.9,4.8,9.1,4.3,9,3.8C9,3,8.3,2.3,7.4,2.2C6.5,2.1,5.7,2.8,5.6,3.7
	c0,0.2,0,0.3,0.1,0.5C5.8,4.3,6,4.3,6.1,4.3c0.3,0,0.5-0.2,0.6-0.5c0-0.3,0.3-0.5,0.7-0.5c0.3,0,0.5,0.3,0.5,0.5
	c0,0.2,0,0.3-0.1,0.5C7.6,4.5,7.4,4.5,7.3,4.5c0,0,0,0,0,0C7,4.5,6.8,4.7,6.7,4.9c0,0,0,0.1,0,0.1v0v0.3v0.2L2.3,9.1
	c-0.3,0.2-0.4,0.6-0.3,1c0.1,0.4,0.4,0.6,0.8,0.6h8.8c0.4,0,0.7-0.2,0.8-0.6C12.6,9.7,12.5,9.3,12.2,9.1z M3.8,9.5l3.5-3l3.5,3H3.8z
	"/>
</svg>
