<?xml version="1.0" encoding="utf-8"?>
<!-- Generator: Adobe Illustrator 23.0.2, SVG Export Plug-In . SVG Version: 6.00 Build 0)  -->
<svg version="1.1" id="Capa_1" xmlns="http://www.w3.org/2000/svg" xmlns:xlink="http://www.w3.org/1999/xlink" x="0px" y="0px"
	 viewBox="0 0 14.2 14.2" style="enable-background:new 0 0 14.2 14.2;" xml:space="preserve">
<g transform="translate(-38.054 0)">
	<g transform="translate(40.949 5.159)">
		<g transform="translate(0)">
			<path d="M4.2,0.4C3,0.4,2.1,1.4,2.1,2.5c0.1,0,0.1,0.1,0.2,0.1c0.2,0,0.4-0.1,0.5-0.3c0.5-0.5,0.9,0.1,1.4,0.3
				c0.3,0.1,0.5-0.1,0.7-0.3C5.1,2,5.5,2,5.8,2.3C6,2.4,6.2,2.5,6.4,2.6C6.3,1.4,5.4,0.4,4.2,0.4z"/>
		</g>
	</g>
	<g transform="translate(38.054)">
		<path d="M9.8,2.5H3.2v7.9c0,0.7,0.6,1.2,1.2,1.2h5.3c0.7,0,1.2-0.6,1.2-1.2V2.5H9.8z M8.2,3.2c0.2,0,0.4,0.2,0.4,0.4
			S8.5,4.1,8.2,4.1S7.8,3.9,7.8,3.7C7.8,3.4,8,3.2,8.2,3.2z M4.1,3.4h1.4V4H4.1V3.4z M7.1,10.5c-1.5,0-2.8-1.2-2.8-2.8S5.6,5,7.1,5
			s2.8,1.2,2.8,2.8C9.9,9.3,8.6,10.5,7.1,10.5C7.1,10.5,7.1,10.5,7.1,10.5L7.1,10.5z M9.7,4.1c-0.2,0-0.4-0.2-0.4-0.4
			s0.2-0.4,0.4-0.4c0.2,0,0.4,0.2,0.4,0.4C10.1,3.9,9.9,4.1,9.7,4.1C9.7,4.1,9.7,4.1,9.7,4.1L9.7,4.1z"/>
	</g>
</g>
</svg>
