<?xml version="1.0" encoding="utf-8"?>
<!-- Generator: Adobe Illustrator 23.0.2, SVG Export Plug-In . SVG Version: 6.00 Build 0)  -->
<svg version="1.1" id="Capa_1" xmlns="http://www.w3.org/2000/svg" xmlns:xlink="http://www.w3.org/1999/xlink" x="0px" y="0px"
	 viewBox="0 0 14.2 14.2" style="enable-background:new 0 0 14.2 14.2;" xml:space="preserve">
<g>
	<g>
		<path d="M8.7,8.6H5.1C5,8.6,5,8.7,4.9,8.7c0,0-0.1,0.1,0,0.2L5.2,11c0,0.1,0.1,0.2,0.2,0.2h2.9c0.1,0,0.2-0.1,0.2-0.2l0.4-2.1v0
			c0-0.1,0-0.1,0-0.2C8.9,8.7,8.8,8.6,8.7,8.6z"/>
		<path d="M9,7H7V6c0,0,0,0,0,0c0.1-0.1,0.3-0.2,0.5-0.2c0.4-0.1,0.9-0.3,1.2-0.9C8.9,4.5,9,4.1,9,3.6c0-0.4-0.1-0.7-0.2-0.9
			c0-0.1-0.1-0.1-0.2-0.1c0,0-0.1,0-0.1,0.1C8.5,2.8,8.3,2.9,8,2.9C7.6,3.1,7.1,3.2,6.8,3.8c-0.2,0.3-0.2,0.6-0.2,1
			C6.5,4.6,6.4,4.5,6.2,4.4C5.8,4.1,5.2,3.9,4.8,3.9c-0.3,0-0.4,0-0.5,0.1c0,0,0,0.1,0,0.1c0.1,0.1,0.1,0.3,0.1,0.5
			c0,0.4,0.1,0.8,0.5,1.2c0.4,0.3,1,0.5,1.4,0.5c0.1,0,0.1,0,0.2,0V7H4.8C4.7,7,4.6,7.1,4.6,7.2v0.8c0,0.1,0.1,0.2,0.2,0.2H9
			c0.1,0,0.2-0.1,0.2-0.2V7.2C9.2,7.1,9.1,7,9,7z M6.3,5.7L6.3,5.7L6.3,5.7L6.3,5.7C6.3,5.7,6.3,5.7,6.3,5.7L6.3,5.7L6.3,5.7
			C6.3,5.7,6.3,5.7,6.3,5.7C6.3,5.7,6.2,5.7,6.2,5.6C6.1,5.6,6,5.5,5.9,5.5C5.8,5.4,5.7,5.4,5.6,5.3c-0.1,0-0.1-0.1-0.1-0.1
			c0,0-0.1-0.1-0.1-0.1C5.3,5,5.3,5,5.3,5c0,0,0,0,0,0c0,0,0,0,0,0c0,0,0,0,0,0c0,0,0,0,0,0s0,0,0,0c0,0,0,0,0,0s0,0,0,0
			c0,0,0,0,0,0c0,0,0,0,0,0c0,0,0,0,0,0c0,0,0,0,0,0c0,0,0,0,0,0c0,0,0,0,0,0s0,0,0,0s0,0,0,0c0,0,0.1,0,0.1,0.1c0,0,0.1,0,0.1,0.1
			c0.1,0,0.2,0.1,0.3,0.2c0.1,0,0.1,0.1,0.2,0.1c0.1,0,0.1,0.1,0.2,0.1c0,0,0,0,0.1,0.1c0,0,0,0,0,0l0,0l0,0l0,0l0,0v0l0,0
			c0,0,0,0,0,0c0,0,0.1,0.1,0.1,0.1c0,0,0,0,0,0.1c0,0,0,0,0,0.1c0,0,0,0,0,0V6c0,0,0,0,0,0c0,0,0,0-0.1-0.1c0,0-0.1-0.1-0.1-0.1
			C6.4,5.8,6.4,5.8,6.3,5.7C6.3,5.8,6.3,5.7,6.3,5.7z M7.3,5.2L7.3,5.2L7.3,5.2L7.3,5.2L7.3,5.2L7.3,5.2L7.3,5.2
			C7.3,5.2,7.3,5.2,7.3,5.2c0.1-0.1,0.1-0.1,0.1-0.1C7.4,5,7.4,4.9,7.5,4.8c0-0.1,0.1-0.3,0.1-0.4c0-0.1,0.1-0.1,0.1-0.2
			c0-0.1,0.1-0.1,0.1-0.2c0,0,0.1-0.1,0.1-0.1c0,0,0,0,0,0c0,0,0,0,0,0c0,0,0,0,0.1,0c0,0,0,0,0,0s0,0,0,0c0,0,0,0,0,0s0,0,0,0
			c0,0,0,0,0,0c0,0,0,0,0,0s0,0,0,0c0,0,0,0,0,0c0,0,0,0,0,0c0,0,0,0,0,0c0,0,0,0,0,0c0,0,0,0,0,0c0,0,0,0,0,0c0,0,0,0,0,0
			c0,0,0,0.1-0.1,0.2c0,0.1,0,0.1-0.1,0.2c0,0.1-0.1,0.3-0.1,0.4C7.7,4.9,7.7,5,7.6,5c0,0.1-0.1,0.1-0.1,0.2c0,0,0,0.1-0.1,0.1
			c0,0,0,0,0,0l0,0l0,0l0,0l0,0l0,0l0,0c0,0,0,0,0,0c0,0,0,0-0.1,0.1s0,0-0.1,0.1c0,0,0,0-0.1,0c0,0,0,0-0.1,0c0,0-0.1,0-0.1,0.1
			C7,5.7,6.9,5.7,6.9,5.7s0,0,0.1-0.1c0,0,0-0.1,0.1-0.1c0,0,0.1-0.1,0.1-0.1C7.2,5.4,7.2,5.3,7.3,5.2C7.2,5.3,7.2,5.3,7.3,5.2z"/>
	</g>
</g>
</svg>
